<svg width="35" height="31" viewBox="0 0 35 31" fill="none" xmlns="http://www.w3.org/2000/svg">
<path d="M1.16992 17.5151C2.58627 17.5151 3.50134 18.5982 4.70764 19.2319C5.48312 19.6392 6.1284 20.3372 6.89766 20.7009" stroke="#161A29" stroke-width="1.3" stroke-linecap="round"/>
<path d="M1 16.8786C1.67585 16.2396 1.98118 15.3028 2.47873 14.5247C3.03865 13.6491 3.47699 12.69 3.95746 11.7814C4.46778 10.8164 5.41251 9.6426 6.30658 8.98509C7.07819 8.41764 8.93894 8.16985 9.92853 8.11786C10.6861 8.07807 10.8471 7.82753 11.192 8.67537C11.4488 9.3068 11.9006 9.84401 12.156 10.4718C12.8238 12.1136 15.8266 12.5779 17.4158 12.5779C19.4679 12.5779 20.0164 11.8408 20.785 10.1797C21.0038 9.70694 21.7209 9.09364 21.7209 8.59572C21.7209 7.76599 22.053 8.28404 22.7317 8.59572C23.9551 9.15758 25.2683 9.65889 26.4472 10.2859C27.2018 10.6872 28.0914 11.0185 28.7964 11.4629" stroke="#161A29" stroke-width="1.3" stroke-linecap="round"/>
<path d="M7.06543 20.7017C8.06827 20.5121 7.84795 19.2362 8.45057 18.6664C8.69242 18.4377 8.84513 17.6767 9.08698 17.9054C9.23452 18.0449 9.08698 19.0856 9.08698 19.277C9.08698 21.8831 8.58159 24.4404 8.58159 27.0732C8.58159 27.7103 8.58159 28.3475 8.58159 28.9846C8.58159 29.577 8.45372 29.6462 8.91852 29.6218C11.1084 29.5067 13.1579 30.0996 15.3201 30.0996C17.3853 30.0996 19.4506 30.0996 21.5158 30.0996C22.2021 30.0996 22.8885 30.0996 23.5748 30.0996C24.7235 30.0996 24.4171 29.5218 24.4171 28.5068C24.4171 25.4236 23.9117 22.3279 23.9117 19.2681C23.9117 18.7746 23.781 18.5864 24.0427 19.1089C24.3425 19.7073 24.5668 20.258 24.9974 20.7814C25.149 20.9657 25.272 21.4219 25.5215 21.4893C25.7947 21.5631 26.3278 20.5738 26.4761 20.3832C27.2436 19.3962 28.1014 18.2395 28.6287 17.1178C28.7817 16.7923 28.9922 16.289 29.2276 16.0028C29.3922 15.8028 29.9484 15.338 29.9764 15.1267C30.0336 14.6936 31.5493 12.9988 30.7851 12.6777C30.5161 12.5646 29.3337 11.7755 29.0992 11.5537" stroke="#161A29" stroke-width="1.3" stroke-linecap="round"/>
<path d="M10.9395 8.43619C11.5581 8.43619 12.8296 8.00964 13.3822 7.7194C13.8767 7.45963 14.5887 7.48047 15.151 7.48047C16.3334 7.48047 14.936 5.54228 15.619 4.89649C15.9412 4.59182 16.5535 4.57191 16.9199 4.29474C17.2793 4.02284 16.8884 2.82259 16.6298 2.57799C15.9786 1.96235 13.4664 1.55977 13.4664 2.86116" stroke="#161A29" stroke-width="1.3" stroke-linecap="round"/>
<path d="M15.656 7.32129C15.4121 7.32129 16.0778 7.32136 16.152 7.33014C16.44 7.36417 16.6306 7.58803 16.9194 7.64871C17.3037 7.72946 17.8794 8.11405 18.2671 8.27701C19.0689 8.61392 19.9472 8.87216 20.7099 9.23273" stroke="#161A29" stroke-width="1.3" stroke-linecap="round"/>
<path d="M30.201 6.91801C30.201 5.42556 30.1887 3.93647 30.2581 2.44607C30.2729 2.12653 30.3717 1.82722 30.4124 1.51008C30.4263 1.40186 30.4426 0.990948 30.4426 1.00015" stroke="#161A29" stroke-width="1.3" stroke-linecap="round"/>
<path d="M27 3.77783C28.3095 3.77783 29.5669 4.07976 30.8781 4.07976C31.7276 4.07976 32.6234 4.0005 33.4613 4.14015" stroke="#161A29" stroke-width="1.3" stroke-linecap="round"/>
</svg>
