<svg width="42" height="42" viewBox="0 0 42 42" fill="none" xmlns="http://www.w3.org/2000/svg">
<path d="M1.21692 24.038C3.03315 24.038 4.20657 25.4501 5.75344 26.2762C6.74785 26.8073 7.57532 27.7172 8.56176 28.1914" stroke="#161A29" stroke-width="2" stroke-linecap="round"/>
<path d="M1 23.2073C1.86666 22.3741 2.2582 21.1527 2.89622 20.1384C3.61422 18.9968 4.17631 17.7464 4.79243 16.5618C5.44684 15.3036 6.65829 13.7733 7.80478 12.9161C8.79424 12.1762 11.1803 11.8532 12.4493 11.7854C13.4207 11.7335 13.6272 11.4069 14.0695 12.5123C14.3989 13.3355 14.9782 14.0359 15.3056 14.8543C16.1621 16.9949 20.0126 17.6002 22.0504 17.6002C24.682 17.6002 25.3853 16.6393 26.3709 14.4736C26.6514 13.8572 27.571 13.0576 27.571 12.4084C27.571 11.3267 27.9969 12.0021 28.8672 12.4084C30.436 13.141 32.1199 13.7945 33.6317 14.612C34.5993 15.1353 35.7402 15.5672 36.6441 16.1465" stroke="#161A29" stroke-width="2" stroke-linecap="round"/>
<path d="M8.77748 28.1913C10.0634 27.9441 9.78093 26.2806 10.5537 25.5378C10.8638 25.2396 11.0596 24.2474 11.3698 24.5456C11.559 24.7274 11.3698 26.0843 11.3698 26.3338C11.3698 29.7316 10.7217 33.0656 10.7217 36.4981C10.7217 37.3288 10.7217 38.1595 10.7217 38.9902C10.7217 39.7625 10.5577 39.8527 11.1537 39.8209C13.9619 39.6709 16.5901 40.4439 19.3627 40.4439C22.011 40.4439 24.6593 40.4439 27.3076 40.4439C28.1877 40.4439 29.0678 40.4439 29.9479 40.4439C31.4209 40.4439 31.028 39.6905 31.028 38.3672C31.028 34.3474 30.38 30.3115 30.38 26.3223C30.38 25.6789 30.2124 25.4335 30.548 26.1146C30.9324 26.8948 31.2201 27.6128 31.7721 28.2952C31.9666 28.5355 32.1243 29.1303 32.4442 29.2182C32.7946 29.3144 33.4782 28.0245 33.6683 27.776C34.6525 26.4893 35.7525 24.9813 36.4286 23.5188C36.6249 23.0944 36.8948 22.4382 37.1967 22.0651C37.4077 21.8043 38.121 21.1984 38.1568 20.9229C38.2303 20.3582 39.2448 18.6418 38.2649 18.2232C37.9198 18.0758 37.2695 17.3701 36.9687 17.081C36.4491 16.5815 35.9966 16.6681 35.9966 15.9388" stroke="#161A29" stroke-width="2" stroke-linecap="round"/>
<path d="M13.7451 12.2008C14.5383 12.2008 16.1689 11.6447 16.8774 11.2663C17.5116 10.9276 18.4246 10.9548 19.1457 10.9548C20.6619 10.9548 18.8699 8.42785 19.7458 7.5859C20.159 7.18868 20.9441 7.16273 21.4139 6.80136C21.8749 6.44687 21.3736 4.88205 21.0419 4.56314C20.207 3.7605 16.9854 3.23564 16.9854 4.93233" stroke="#161A29" stroke-width="2" stroke-linecap="round"/>
<path d="M1.21692 24.038C3.03315 24.038 4.20657 25.4501 5.75344 26.2762C6.74785 26.8073 7.57532 27.7172 8.56176 28.1914" stroke="#161A29" stroke-width="2" stroke-linecap="round"/>
<path d="M1 23.2073C1.86666 22.3741 2.2582 21.1527 2.89622 20.1384C3.61422 18.9968 4.17631 17.7464 4.79243 16.5618C5.44684 15.3036 6.65829 13.7733 7.80478 12.9161C8.79424 12.1762 11.1803 11.8532 12.4493 11.7854C13.4207 11.7335 13.6272 11.4069 14.0695 12.5123C14.3989 13.3355 14.9782 14.0359 15.3056 14.8543C16.1621 16.9949 20.0126 17.6002 22.0504 17.6002C24.682 17.6002 25.3853 16.6393 26.3709 14.4736C26.6514 13.8572 27.571 13.0576 27.571 12.4084C27.571 11.3267 27.9969 12.0021 28.8672 12.4084C30.436 13.141 32.1199 13.7945 33.6317 14.612C34.5993 15.1353 35.7402 15.5672 36.6441 16.1465" stroke="#161A29" stroke-width="2" stroke-linecap="round"/>
<path d="M8.77748 28.1913C10.0634 27.9441 9.78093 26.2806 10.5537 25.5378C10.8638 25.2396 11.0596 24.2474 11.3698 24.5456C11.559 24.7274 11.3698 26.0843 11.3698 26.3338C11.3698 29.7316 10.7217 33.0656 10.7217 36.4981C10.7217 37.3288 10.7217 38.1595 10.7217 38.9902C10.7217 39.7625 10.5577 39.8527 11.1537 39.8209C13.9619 39.6709 16.5901 40.4439 19.3627 40.4439C22.011 40.4439 24.6593 40.4439 27.3076 40.4439C28.1877 40.4439 29.0678 40.4439 29.9479 40.4439C31.4209 40.4439 31.028 39.6905 31.028 38.3672C31.028 34.3474 30.38 30.3115 30.38 26.3223C30.38 25.6789 30.2124 25.4335 30.548 26.1146C30.9324 26.8948 31.2201 27.6128 31.7721 28.2952C31.9666 28.5355 32.1243 29.1303 32.4442 29.2182C32.7946 29.3144 33.4782 28.0245 33.6683 27.776C34.6525 26.4893 35.7525 24.9813 36.4286 23.5188C36.6249 23.0944 36.8948 22.4382 37.1967 22.0651C37.4077 21.8043 38.121 21.1984 38.1568 20.9229C38.2303 20.3582 39.2448 18.6418 38.2649 18.2232C37.9198 18.0758 37.2695 17.3701 36.9687 17.081C36.4491 16.5815 35.9966 16.6681 35.9966 15.9388" stroke="#161A29" stroke-width="2" stroke-linecap="round"/>
<path d="M13.7451 12.2008C14.5383 12.2008 16.1689 11.6447 16.8774 11.2663C17.5116 10.9276 18.4246 10.9548 19.1457 10.9548C20.6619 10.9548 18.8699 8.42785 19.7458 7.5859C20.159 7.18868 20.9441 7.16273 21.4139 6.80136C21.8749 6.44687 21.3736 4.88205 21.0419 4.56314C20.207 3.7605 16.9854 3.23564 16.9854 4.93233" stroke="#161A29" stroke-width="2" stroke-linecap="round"/>
<path d="M19.7944 10.747C19.4817 10.747 20.3353 10.7471 20.4305 10.7586C20.7997 10.8029 21.0442 11.0948 21.4146 11.1739C21.9074 11.2792 22.6455 11.7806 23.1428 11.9931C24.1709 12.4323 25.2971 12.769 26.2751 13.2391" stroke="#161A29" stroke-width="2" stroke-linecap="round"/>
<path d="M34.7904 1.24087C33.1635 1.24087 30.7437 1.24548 30.0989 2.93362C29.9053 3.44069 29.4938 3.94754 29.4167 4.48586C29.34 5.02147 29.3091 5.57923 29.2634 6.11839C29.191 6.97101 28.825 7.95752 29.478 8.65417C30.6434 9.8974 31.8954 10.6588 33.6865 10.8822C35.4794 11.1057 37.2527 11.7497 38.9988 10.929C40.4699 10.2377 40.9996 9.05927 40.9996 7.65057C40.9996 7.07962 40.9996 6.50868 40.9996 5.93774C40.9996 5.42475 41.0241 4.31461 40.693 3.91715C40.5196 3.70906 40.6072 3.40574 40.3097 3.26146C39.9683 3.09594 39.6317 2.91092 39.3438 2.68606C38.8439 2.29571 38.0017 2.19404 37.412 1.9367C36.9175 1.72089 36.4059 1.55785 35.8942 1.33454C35.231 1.04508 34.4512 1.27349 33.8245 1" stroke="#161A29" stroke-width="2" stroke-linecap="round"/>
<path d="M1 23.2073C1.86666 22.3741 2.2582 21.1527 2.89622 20.1384C3.61422 18.9968 4.17631 17.7464 4.79243 16.5618C5.44684 15.3036 6.65829 13.7733 7.80478 12.9161C8.79424 12.1762 11.1803 11.8532 12.4493 11.7854C13.4207 11.7335 13.6272 11.4069 14.0695 12.5123C14.3989 13.3355 14.9782 14.0359 15.3056 14.8543C16.1621 16.9949 20.0126 17.6002 22.0504 17.6002C24.682 17.6002 25.3853 16.6393 26.3709 14.4736C26.6514 13.8572 27.571 13.0576 27.571 12.4084C27.571 11.3267 27.9969 12.0021 28.8672 12.4084C30.436 13.141 32.1199 13.7945 33.6317 14.612C34.5993 15.1353 35.7402 15.5672 36.6441 16.1465" stroke="#161A29" stroke-width="2" stroke-linecap="round"/>
<path d="M8.77748 28.1913C10.0634 27.9441 9.78093 26.2806 10.5537 25.5378C10.8638 25.2396 11.0596 24.2474 11.3698 24.5456C11.559 24.7274 11.3698 26.0843 11.3698 26.3338C11.3698 29.7316 10.7217 33.0656 10.7217 36.4981C10.7217 37.3288 10.7217 38.1595 10.7217 38.9902C10.7217 39.7625 10.5577 39.8527 11.1537 39.8209C13.9619 39.6709 16.5901 40.4439 19.3627 40.4439C22.011 40.4439 24.6593 40.4439 27.3076 40.4439C28.1877 40.4439 29.0678 40.4439 29.9479 40.4439C31.4209 40.4439 31.028 39.6905 31.028 38.3672C31.028 34.3474 30.38 30.3115 30.38 26.3223C30.38 25.6789 30.2124 25.4335 30.548 26.1146C30.9324 26.8948 31.2201 27.6128 31.7721 28.2952C31.9666 28.5355 32.1243 29.1303 32.4442 29.2182C32.7946 29.3144 33.4782 28.0245 33.6683 27.776C34.6525 26.4893 35.7525 24.9813 36.4286 23.5188C36.6249 23.0944 36.8948 22.4382 37.1967 22.0651C37.4077 21.8043 38.121 21.1984 38.1568 20.9229C38.2303 20.3582 39.2448 18.6418 38.2649 18.2232C37.9198 18.0758 37.2695 17.3701 36.9687 17.081C36.4491 16.5815 35.9966 16.6681 35.9966 15.9388" stroke="#161A29" stroke-width="2" stroke-linecap="round"/>
<path d="M13.7451 12.2008C14.5383 12.2008 16.1689 11.6447 16.8774 11.2663C17.5116 10.9276 18.4246 10.9548 19.1457 10.9548C20.6619 10.9548 18.8699 8.42785 19.7458 7.5859C20.159 7.18868 20.9441 7.16273 21.4139 6.80136C21.8749 6.44687 21.3736 4.88205 21.0419 4.56314C20.207 3.7605 16.9854 3.23564 16.9854 4.93233" stroke="#161A29" stroke-width="2" stroke-linecap="round"/>
<path d="M1 23.2073C1.86666 22.3741 2.2582 21.1527 2.89622 20.1384C3.61422 18.9968 4.17631 17.7464 4.79243 16.5618C5.44684 15.3036 6.65829 13.7733 7.80478 12.9161C8.79424 12.1762 11.1803 11.8532 12.4493 11.7854C13.4207 11.7335 13.6272 11.4069 14.0695 12.5123C14.3989 13.3355 14.9782 14.0359 15.3056 14.8543C16.1621 16.9949 20.0126 17.6002 22.0504 17.6002C24.682 17.6002 25.3853 16.6393 26.3709 14.4736C26.6514 13.8572 27.571 13.0576 27.571 12.4084C27.571 11.3267 27.9969 12.0021 28.8672 12.4084C30.436 13.141 32.1199 13.7945 33.6317 14.612C34.5993 15.1353 35.7402 15.5672 36.6441 16.1465" stroke="#161A29" stroke-width="2" stroke-linecap="round"/>
<path d="M8.77748 28.1913C10.0634 27.9441 9.78093 26.2806 10.5537 25.5378C10.8638 25.2396 11.0596 24.2474 11.3698 24.5456C11.559 24.7274 11.3698 26.0843 11.3698 26.3338C11.3698 29.7316 10.7217 33.0656 10.7217 36.4981C10.7217 37.3288 10.7217 38.1595 10.7217 38.9902C10.7217 39.7625 10.5577 39.8527 11.1537 39.8209C13.9619 39.6709 16.5901 40.4439 19.3627 40.4439C22.011 40.4439 24.6593 40.4439 27.3076 40.4439C28.1877 40.4439 29.0678 40.4439 29.9479 40.4439C31.4209 40.4439 31.028 39.6905 31.028 38.3672C31.028 34.3474 30.38 30.3115 30.38 26.3223C30.38 25.6789 30.2124 25.4335 30.548 26.1146C30.9324 26.8948 31.2201 27.6128 31.7721 28.2952C31.9666 28.5355 32.1243 29.1303 32.4442 29.2182C32.7946 29.3144 33.4782 28.0245 33.6683 27.776C34.6525 26.4893 35.7525 24.9813 36.4286 23.5188C36.6249 23.0944 36.8948 22.4382 37.1967 22.0651C37.4077 21.8043 38.121 21.1984 38.1568 20.9229C38.2303 20.3582 39.2448 18.6418 38.2649 18.2232C37.9198 18.0758 37.2695 17.3701 36.9687 17.081C36.4491 16.5815 35.9966 16.6681 35.9966 15.9388" stroke="#161A29" stroke-width="2" stroke-linecap="round"/>
<path d="M13.7451 12.2008C14.5383 12.2008 16.1689 11.6447 16.8774 11.2663C17.5116 10.9276 18.4246 10.9548 19.1457 10.9548C20.6619 10.9548 18.8699 8.42785 19.7458 7.5859C20.159 7.18868 20.9441 7.16273 21.4139 6.80136C21.8749 6.44687 21.3736 4.88205 21.0419 4.56314C20.207 3.7605 16.9854 3.23564 16.9854 4.93233" stroke="#161A29" stroke-width="2" stroke-linecap="round"/>
<path d="M19.7944 10.747C19.4817 10.747 20.3353 10.7471 20.4305 10.7586C20.7997 10.8029 21.0442 11.0948 21.4146 11.1739C21.9074 11.2792 22.6455 11.7806 23.1428 11.9931C24.1709 12.4323 25.2971 12.769 26.2751 13.2391" stroke="#161A29" stroke-width="2" stroke-linecap="round"/>
<path d="M34.7904 1.24087C33.1635 1.24087 30.7437 1.24548 30.0989 2.93362C29.9053 3.44069 29.4938 3.94754 29.4167 4.48586C29.34 5.02147 29.3091 5.57923 29.2634 6.11839C29.191 6.97101 28.825 7.95752 29.478 8.65417C30.6434 9.8974 31.8954 10.6588 33.6865 10.8822C35.4794 11.1057 37.2527 11.7497 38.9988 10.929C40.4699 10.2377 40.9996 9.05927 40.9996 7.65057C40.9996 7.07962 40.9996 6.50868 40.9996 5.93774C40.9996 5.42475 41.0241 4.31461 40.693 3.91715C40.5196 3.70906 40.6072 3.40574 40.3097 3.26146C39.9683 3.09594 39.6317 2.91092 39.3438 2.68606C38.8439 2.29571 38.0017 2.19404 37.412 1.9367C36.9175 1.72089 36.4059 1.55785 35.8942 1.33454C35.231 1.04508 34.4512 1.27349 33.8245 1" stroke="#161A29" stroke-width="2" stroke-linecap="round"/>
<path d="M34.3995 4.18188C34.3995 5.23623 34.5368 6.23922 34.6851 7.27458C34.712 7.46248 34.8226 7.67905 34.8339 7.84678C34.8395 7.93026 34.9063 8.41654 34.9063 8.16272" stroke="#161A29" stroke-width="2" stroke-linecap="round"/>
<path d="M31.8657 6.39351H37.0782" stroke="#161A29" stroke-width="2" stroke-linecap="round"/>
</svg>
