<svg width="54" height="47" viewBox="0 0 54 47" fill="none" xmlns="http://www.w3.org/2000/svg">
<path d="M27.4289 8C24.3234 8 24.5593 11.3702 24.5593 13.6034C24.5593 15.4005 28.4293 16.6175 29.4171 14.9674C29.9734 14.0379 30.7186 13.2443 31.2082 12.1749C31.6383 11.2357 30.8697 10.5659 30.3736 9.86166C30.0205 9.36037 29.3444 8.64872 28.695 8.50689C28.2146 8.40199 26.7681 8.16589 27.2601 8.16589" stroke="black" stroke-width="1.5" stroke-linecap="round"/>
<path d="M26.9223 16.2945C26.9223 18.9733 26.9223 21.6522 26.9223 24.331C26.9223 25.9185 26.7582 27.6866 27.1287 29.234C27.2177 29.6057 27.4884 30.3922 27.0536 30.598C25.9472 31.1215 24.614 33.035 23.9777 34.0356C23.5321 34.7362 22.9153 35.3348 22.496 36.0355C22.4498 36.1127 21.9729 36.8446 21.9333 36.8557C20.889 37.1489 19.7 36.6095 18.651 37.0677C17.7877 37.4448 17.9241 38.6897 18.9042 38.6897C19.7537 38.6897 20.5452 39.0681 21.3518 39.0215C22.0494 38.9812 21.8583 37.4696 21.8583 37.0308" stroke="black" stroke-width="1.5" stroke-linecap="round"/>
<path d="M27.4287 30.3952C27.4287 31.5608 28.4873 32.6562 29.1167 33.584C29.6732 34.4043 29.9591 35.5238 30.5609 36.2843C31.2447 37.1482 32.2637 36.8649 33.3368 36.8649C34.3608 36.8649 34.5967 35.206 33.59 35.206C32.6053 35.206 31.6207 35.206 30.636 35.206" stroke="black" stroke-width="1.5" stroke-linecap="round"/>
<path d="M27.4321 20.5598C29.0201 20.5598 30.4351 21.7167 31.597 22.6555C31.7309 22.7638 32.866 23.905 33.0096 23.6228" stroke="black" stroke-width="1.5" stroke-linecap="round"/>
<path d="M34.0755 23.784C32.7323 23.784 34.5218 26.0512 35.5063 25.8753C36.3347 25.7273 35.936 24.9291 35.6339 24.5498C35.3862 24.2387 34.9165 23.9019 34.5266 23.784C34.3258 23.7233 34.0112 23.7382 33.9115 23.5422" stroke="black" stroke-width="1.5" stroke-linecap="round"/>
<path d="M26.4478 20.2373C26.1477 20.2668 25.7414 20.6425 25.5 20.8061C24.8852 21.2227 24.2997 21.6491 23.6591 22.0286C23.1972 22.3022 22.7241 22.4859 22.2693 22.7764C21.9919 22.9536 21.7436 23.134 21.44 23.2645C20.9502 23.4751 20.3646 23.6164 19.9226 23.8646C19.633 24.0272 19.3147 24.1064 18.9839 24.1064" stroke="black" stroke-width="1.5" stroke-linecap="round"/>
<path d="M18.7377 23.7034C18.3561 23.7034 17.8213 23.6012 17.4618 23.7527C17 23.9472 16.3186 24.6933 16.1175 25.1543C16.0069 25.408 15.9546 25.9156 16.0492 26.1843C16.1464 26.4603 16.6231 26.3758 16.8512 26.3634C17.0783 26.351 17.5308 25.9488 17.7534 25.8394C18.0626 25.6875 18.3697 25.5159 18.6146 25.2752C18.9473 24.9483 19.1478 24.6437 19.1478 24.187" stroke="black" stroke-width="1.5" stroke-linecap="round"/>
<path d="M18.622 3.15839C15.7853 3.15839 13.0413 4.90928 10.8124 6.56504C8.35109 8.39344 5.34398 10.3381 3.87055 13.1212C2.96991 14.8224 2.44744 16.5015 2.19937 18.424C1.92609 20.5419 1.63482 22.9648 1.5566 25.0766C1.43806 28.2773 0.73753 32.6595 3.00282 35.2484C4.52047 36.9828 5.89915 40.0869 8.06458 41.0493C10.4925 42.1284 12.6445 43.827 15.2153 44.7452C18.0337 45.7518 20.8187 45.6772 23.7641 45.6772C27.6254 45.6772 30.8327 44.4742 34.5304 43.6525C36.0024 43.3254 37.999 41.7604 39.1422 40.7601C40.6066 39.4787 42.2799 38.3837 43.7862 37.1284C47.309 34.1928 50.2788 30.4113 52.0135 26.1533C53.0062 23.7167 52.9842 20.7593 52.4474 18.3437C51.8535 15.6712 51.4197 13.3714 49.8603 11.0322C48.1203 8.4223 45.2924 4.2544 42.2757 3.09411C38.889 1.79155 34.7428 1.65134 31.0755 1.40686C28.3946 1.22813 25.3827 0.762416 22.6714 1.14975C21.6578 1.29455 20.804 2.14846 19.795 2.27459C19.0409 2.36885 18.1027 2.75069 17.7542 3.44763" stroke="#161A29" stroke-width="1.5" stroke-linecap="round"/>
</svg>
