<svg width="33" height="23" viewBox="0 0 33 23" fill="none" xmlns="http://www.w3.org/2000/svg">
<path d="M28.201 6.91801C28.201 5.42556 28.1887 3.93647 28.2581 2.44607C28.2729 2.12653 28.3717 1.82722 28.4124 1.51008C28.4263 1.40186 28.4426 0.990948 28.4426 1.00015" stroke="#D0D0D0" stroke-width="1.3" stroke-linecap="round"/>
<path d="M25 3.77783C26.3095 3.77783 27.5669 4.07976 28.8781 4.07976C29.7276 4.07976 30.6234 4.0005 31.4613 4.14015" stroke="#D0D0D0" stroke-width="1.3" stroke-linecap="round"/>
<path d="M1.17079 17.9341C1.17079 15.3496 1 11.78 1 9.19558C1.93463 9.03139 2.96415 9.03139 3.47652 9.03139C4.42992 9.03139 5.32122 8.8672 6.29462 8.8672H8.94194C9.46286 8.8672 9.71426 8.98224 9.91926 8.53883C10.0974 8.15344 10.0481 8.06977 10.3937 7.4716C10.3937 6.76631 12.0045 7.06113 12.614 7.06113C13.7093 7.06113 14.7541 7.22531 15.8591 7.22531C16.779 7.22531 17.0208 8.71227 17.2349 9.43274C17.3026 9.66048 19.6203 9.56063 19.8823 9.51484C20.3955 9.42513 21.3109 9.51298 21.7515 9.27768C22.0319 9.12793 22.5402 9.01423 22.8617 9.03139C23.6535 9.07368 23.7156 13.5169 23.7156 14.2216C23.7156 14.8759 24.2189 21.3268 23.8864 21.3456C22.1335 21.4447 20.3458 21.3456 18.5918 21.3456C15.6522 21.3456 12.6781 21.5098 9.72 21.5098C8.70945 21.5098 7.63706 21.6033 6.63621 21.4733C5.04631 21.2667 3.57087 20.853 1.94886 20.853C1.26731 20.853 1.17079 20.8804 1.17079 20.1962V17.9341Z" stroke="#D9D9D9" stroke-width="1.3" stroke-linecap="round"/>
<path d="M9.40661 12.3152C10.309 11.6906 11.6566 11.33 12.7845 11.33C14.5557 11.33 16.5661 11.6317 17.4339 13.3003C18.8467 16.0165 16.961 19.047 13.8093 19.047C12.8699 19.047 11.425 18.3931 10.5642 18.0253C9.54527 17.59 8.95479 17.0999 8.60957 16.0095C8.1651 14.6055 8.10628 13.2152 9.40661 12.3152Z" stroke="#D9D9D9" stroke-width="1.3" stroke-linecap="round"/>
<path d="M19.6758 11.8226C19.7959 12.7462 21.1348 11.814 19.7123 11.814" stroke="#D9D9D9" stroke-width="1.3" stroke-linecap="round"/>
</svg>
