<svg width="51" height="34" viewBox="0 0 51 34" fill="none" xmlns="http://www.w3.org/2000/svg">
<path d="M1.36387 7.95587C1.36387 13.6078 1.36387 19.2597 1.36387 24.9116C1.36387 26.5607 1.36387 28.2097 1.36387 29.8587C1.36387 31.355 1.56948 31.295 3.02148 31.295C6.47708 31.295 9.62039 32.1997 13.0076 32.6514C15.1398 32.9358 17.4245 32.7312 19.5774 32.7312C25.8794 32.7312 32.2155 32.3722 38.4782 32.3722C42.2149 32.3722 46.0236 32.5889 49.7581 32.3722C50.4663 32.331 49.3942 18.2237 49.3942 16.7928C49.3942 15.2517 49.2618 5.53491 47.5749 5.44243C46.89 5.40489 45.8071 5.65354 45.2097 5.98103C44.2711 6.49561 42.3209 6.30348 41.2274 6.49967C40.6693 6.59981 35.7317 6.81817 35.5875 6.32014C35.1313 4.74453 34.6161 1.49274 32.6564 1.49274C30.3023 1.49274 28.0764 1.13368 25.7429 1.13368C24.4443 1.13368 21.0126 0.488948 21.0126 2.03133C21.0126 2.94525 20.3815 3.52245 20.0019 4.36524C19.5652 5.33495 19.0296 5.08337 17.9198 5.08337C16.0398 5.08337 14.1598 5.08337 12.2798 5.08337C10.2061 5.08337 8.30722 5.44243 6.27606 5.44243C5.1845 5.44243 1.72064 7.22375 1 5.80149" stroke="#161A29" stroke-width="2" stroke-linecap="round"/>
<path d="M25.3785 10.1102C22.9754 10.1102 20.8321 11.2578 18.9097 12.6236C16.1395 14.5919 16.2648 17.6323 17.2117 20.7025C17.9472 23.0871 19.2051 24.159 21.3759 25.111C23.2097 25.9153 26.2881 27.3452 28.2894 27.3452C35.0039 27.3452 39.0211 20.7179 36.0114 14.778C34.1625 11.1289 29.8796 10.4692 26.1062 10.4692" stroke="#161A29" stroke-width="2" stroke-linecap="round"/>
<path d="M39.5704 11.5464C39.8263 13.5663 43.6924 10.1102 40.662 10.1102" stroke="#161A29" stroke-width="2" stroke-linecap="round"/>
</svg>
