<svg width="51" height="48" viewBox="0 0 51 48" fill="none" xmlns="http://www.w3.org/2000/svg">
<path d="M17.4374 3.85236C14.7359 3.85236 12.1227 5.61586 10.0001 7.28352C7.65609 9.12508 4.79234 11.0837 3.38914 13.8869C2.53143 15.6004 2.03387 17.2915 1.79762 19.2279C1.53738 21.361 1.25999 23.8013 1.1855 25.9283C1.07261 29.152 0.405474 33.5658 2.56278 36.1733C4.00808 37.9202 5.32104 41.0466 7.38324 42.016C9.69544 43.1028 11.7448 44.8137 14.1931 45.7385C16.8772 46.7523 19.5293 46.6772 22.3343 46.6772C26.0116 46.6772 29.066 45.4655 32.5874 44.6379C33.9892 44.3084 36.9887 43.3437 38.0774 42.3362C39.472 41.0456 41.0656 39.9427 42.5 38.6784C45.8549 35.7216 47.5851 31.3014 49.2371 27.0127C50.1825 24.5587 50.1616 21.58 49.6503 19.1469C49.0848 16.4553 48.6716 14.1389 47.1865 11.7829C45.5295 9.15415 42.8364 4.95626 39.9635 3.78762C36.7383 2.47568 32.7897 2.33447 29.2972 2.08822C26.7441 1.90821 23.8758 1.43914 21.2937 1.82927C20.3285 1.97511 19.5154 2.83516 18.5545 2.9622C17.8363 3.05714 16.9429 3.44172 16.611 4.14368" stroke="#161A29" stroke-width="1.5" stroke-linecap="round"/>
<path d="M17.6028 9.03428C17.6028 8.29837 17.6028 6.09064 17.6028 6.82655C17.6028 7.54152 17.8659 8.54796 18.4662 9.01331C18.7796 9.25629 19.1369 9.45589 19.4255 9.69503C19.546 9.7948 20.0508 9.92521 19.9958 10.1146C19.9637 10.2253 19.3472 10.2415 19.2124 10.2824C18.7665 10.4173 18.4745 10.442 18.1304 10.7805C17.9315 10.9763 17.7864 11.201 17.6507 11.4413C17.5085 11.6932 17.5195 11.8051 17.5068 11.4675C17.4896 11.0101 17.0502 10.5672 16.7393 10.2614C16.3804 9.90826 16.0368 9.97821 15.5455 9.97821C15.4124 9.97821 14.6866 9.97821 15.1564 9.97821C15.4602 9.97821 15.764 9.97821 16.0678 9.97821C16.5262 9.97821 17.354 9.67402 17.5068 9.22307" stroke="#161A29" stroke-width="1.3" stroke-linecap="round"/>
<path d="M22.2804 14.4173C23.1651 14.4173 23.6448 13.6189 23.832 12.8002C23.9096 12.4606 23.9522 11.4138 23.9522 11.7622C23.9522 12.2803 24.0762 12.7708 24.1707 13.2809C24.2494 13.7057 24.3135 14.4839 24.7389 14.7342C25.3463 15.0914 25.8231 15.2221 26.509 15.3788C26.6174 15.4036 27.0006 15.3342 27.0006 15.499C27.0006 15.6693 26.6068 15.5973 26.4871 15.5973C25.6189 15.5973 24.7471 15.5441 23.9522 15.9415C22.8623 16.4865 22.7671 17.6555 22.4716 18.6895C22.3055 19.2709 22.4771 17.8217 22.4771 17.6679C22.4771 16.9011 22.5716 16.3313 22.1384 15.7011C21.4994 14.7717 20.7197 14.8106 19.6745 14.8106C19.5805 14.8106 20.5314 14.8106 20.7999 14.8106C21.3463 14.8106 21.8369 14.614 22.3788 14.614" stroke="#161A29" stroke-width="1.3" stroke-linecap="round"/>
<path d="M13.4293 17.6624C13.7061 17.1395 13.8226 16.8285 13.8226 16.2311C13.8226 16.186 13.8346 15.4644 13.8991 15.5209C13.9347 15.552 14.0412 16.0783 14.063 16.1437C14.3168 16.905 14.3447 17.7911 14.9535 18.4C15.3668 18.8132 16.3988 18.4555 16.9257 18.695C17.3686 18.8963 17.7538 19.0392 17.0186 19.0392C16.5778 19.0392 16.256 19.1376 15.8385 19.2304C14.7773 19.4662 14.8726 21.0216 14.6585 21.7926C14.5681 22.1182 14.4126 23.1139 14.4126 22.776C14.4126 22.2202 14.4321 21.3433 14.0193 20.9076C13.2458 20.0912 12.6429 19.2358 11.3642 19.2358C10.938 19.2358 9.65963 19.2358 10.0858 19.2358C10.3683 19.2358 10.6212 19.0968 10.8779 18.9845C11.2389 18.8266 11.5677 18.7892 11.9323 18.6677C12.3482 18.529 13.7243 17.8 13.7243 17.2691" stroke="#161A29" stroke-width="1.3" stroke-linecap="round"/>
<path d="M26.1716 24.9593C26.1716 27.2189 22.9696 29.3984 20.5613 30.9753C20.4333 31.3025 19.7034 32.0666 20.1352 32.2328C21.18 32.6346 25.895 34.1625 26.9718 34.499C28.3039 34.9153 29.5799 35.3745 30.9415 35.7149C32.4649 36.0957 34.0046 36.1095 35.5243 36.4527C36.4476 36.6612 37.5553 36.7437 38.5068 36.7437C39.3381 36.7437 38.9352 36.6237 38.6211 35.9955C37.8657 34.4848 37.8625 32.9213 37.8625 31.2775C37.8625 30.6016 38.3296 28.3834 37.3013 28.3262C36.2417 28.2674 35.1513 27.4588 34.1318 27.2039C33.4092 27.0233 32.6826 26.6763 31.9703 26.4453C31.1419 26.1767 30.233 26.0824 29.445 25.801C28.7461 25.5514 27.4507 25.7581 26.8678 25.2918C26.641 25.1103 26.4087 25.1489 26.1716 24.9593ZM26.1716 24.9593C25.8561 24.7069 26.2778 23.754 26.3586 23.4628C26.597 22.6049 27.105 20.5477 27.9902 20.2414C29.2645 19.8002 31.5242 19.9651 32.7081 20.5115C33.9744 21.096 35.4779 21.6755 36.8337 21.9768C37.2375 22.0665 38.9848 22.1359 38.9848 22.6211C38.9848 24.5816 38.2366 26.3938 38.2366 28.3262" stroke="#161A29" stroke-width="1.5" stroke-linecap="round"/>
<path d="M33.5596 20.8441C33.5596 19.7845 33.8599 18.868 34.2662 17.8928C34.7006 16.8502 34.7979 15.6846 35.5132 14.7648C35.777 14.4257 36.0979 13.4902 36.1887 13.0813C36.3116 12.5286 36.5524 12.2761 36.5524 11.6784" stroke="#161A29" stroke-width="1.5" stroke-linecap="round"/>
</svg>
