<svg width="34" height="37" viewBox="0 0 34 37" fill="none" xmlns="http://www.w3.org/2000/svg">
<path d="M1 7.9126C1 14.8414 1.37253 21.823 1.37253 28.6514C1.37253 31.423 2.87678 31.297 6.72044 32.2233C8.32298 32.6095 9.91191 33.4762 11.141 34.1863C11.5628 34.4301 13.5053 35.5031 13.2934 35.5031" stroke="#D0D0D0" stroke-width="2" stroke-linecap="round"/>
<path d="M1.12988 7.83057C3.92527 8.44811 5.98965 8.65188 8.65739 9.72341C9.42227 10.0306 11.1422 10.5464 11.9894 10.5464" stroke="#D0D0D0" stroke-width="2" stroke-linecap="round"/>
<path d="M13.6645 35.5645C13.6645 30.6869 13.2919 25.8594 13.2919 20.9706C13.2919 18.5939 12.9194 16.2353 12.9194 13.8382C12.9194 13.1032 13.2775 11.1983 12.5469 10.8755" stroke="#D0D0D0" stroke-width="2" stroke-linecap="round"/>
<path d="M12.6602 10.9768C12.7669 10.1279 14.739 8.48136 15.4541 7.84949C16.3618 7.04737 16.7743 6.16698 17.9015 5.66895" stroke="#D0D0D0" stroke-width="2" stroke-linecap="round"/>
<path d="M13.709 35.6201C14.3933 35.5445 16.2317 31.523 16.5044 30.6797C17.2032 29.1358 18.508 27.1816 18.508 25.3599" stroke="#D0D0D0" stroke-width="2" stroke-linecap="round"/>
<path d="M18.5068 25.6893C18.5068 18.953 17.7617 12.367 17.7617 5.60889" stroke="#D0D0D0" stroke-width="2" stroke-linecap="round"/>
<path d="M17.7617 5.60889C19.5427 5.60889 21.0458 5.60896 23.1423 6.28696C23.9957 6.70592 26.1009 7.43912 27.0538 7.43912" stroke="#D0D0D0" stroke-width="2" stroke-linecap="round"/>
<path d="M18.8809 26.0179C21.0583 26.0179 24.218 27.5524 25.8761 28.7245C26.4671 29.1423 27.8215 30.2666 27.8215 28.9806C27.8215 27.0969 27.8215 25.2132 27.8215 23.3295C27.8215 18.2026 27.0764 12.9221 27.0764 7.9126" stroke="#D0D0D0" stroke-width="2" stroke-linecap="round"/>
<path d="M27.0762 7.58374C27.0762 5.27681 30.1626 2.84998 31.53 1.0376" stroke="#D0D0D0" stroke-width="2" stroke-linecap="round"/>
<path d="M27.8213 28.9809C28.7344 27.2832 29.2034 25.3639 30.1321 23.8867C31.0063 22.4963 31.5605 21.0557 32.2916 19.7637" stroke="#D0D0D0" stroke-width="2" stroke-linecap="round"/>
<path d="M32.2919 20.0929C32.2919 16.5998 32.0877 12.863 31.8799 9.37438C31.7449 7.10751 31.5469 3.19894 31.5469 1" stroke="#D0D0D0" stroke-width="2" stroke-linecap="round"/>
</svg>
