<svg width="51" height="56" viewBox="0 0 51 56" fill="none" xmlns="http://www.w3.org/2000/svg">
<path d="M1 11.6924C1 22.4095 1.57621 33.2084 1.57621 43.7702C1.57621 48.0572 3.90292 47.8622 9.8481 49.295C12.3268 49.8924 14.7845 51.2329 16.6856 52.3313C17.3381 52.7083 20.3426 54.368 20.0148 54.368" stroke="#161A29" stroke-width="2" stroke-linecap="round"/>
<path d="M1.20166 11.5652C5.52543 12.5204 8.7185 12.8356 12.8448 14.493C14.0279 14.9682 16.6883 15.7659 17.9987 15.7659" stroke="#161A29" stroke-width="2" stroke-linecap="round"/>
<path d="M20.5895 54.4629C20.5895 46.9184 20.0132 39.4515 20.0132 31.8896C20.0132 28.2136 19.437 24.5655 19.437 20.8576C19.437 19.7208 19.991 16.7744 18.8608 16.2751" stroke="#161A29" stroke-width="2" stroke-linecap="round"/>
<path d="M19.0356 16.4319C19.2007 15.1189 22.2512 12.5721 23.3572 11.5947C24.7612 10.3541 25.3992 8.99233 27.1427 8.22198" stroke="#161A29" stroke-width="2" stroke-linecap="round"/>
<path d="M20.6577 54.5487C21.7162 54.4317 24.5597 48.2116 24.9815 46.9072C26.0624 44.5192 28.0807 41.4965 28.0807 38.6787" stroke="#161A29" stroke-width="2" stroke-linecap="round"/>
<path d="M28.0797 39.1877C28.0797 28.7683 26.9272 18.5815 26.9272 8.1283" stroke="#161A29" stroke-width="2" stroke-linecap="round"/>
<path d="M26.9272 8.1283C29.6819 8.1283 32.0068 8.12841 35.2497 9.17711C36.5697 9.82513 39.8259 10.9592 41.2998 10.9592" stroke="#161A29" stroke-width="2" stroke-linecap="round"/>
<path d="M28.6572 39.6968C32.0251 39.6968 36.9125 42.0703 39.4771 43.8833C40.3912 44.5296 42.4861 46.2685 42.4861 44.2794C42.4861 41.3658 42.4861 38.4522 42.4861 35.5386C42.4861 27.6086 41.3337 19.4409 41.3337 11.6924" stroke="#161A29" stroke-width="2" stroke-linecap="round"/>
<path d="M41.3335 11.1834C41.3335 7.61517 46.1075 3.86147 48.2224 1.05817" stroke="#161A29" stroke-width="2" stroke-linecap="round"/>
<path d="M42.4854 44.2794C43.8978 41.6535 44.6232 38.6848 46.0596 36.4C47.4117 34.2493 48.269 32.0211 49.3998 30.0226" stroke="#161A29" stroke-width="2" stroke-linecap="round"/>
<path d="M49.4 30.5319C49.4 25.129 49.0841 19.3491 48.7627 13.9531C48.5539 10.4468 48.2476 4.40122 48.2476 1" stroke="#161A29" stroke-width="2" stroke-linecap="round"/>
</svg>
