<svg width="111" height="32" viewBox="0 0 111 32" fill="none" xmlns="http://www.w3.org/2000/svg">
<path d="M30.4222 7.648L28.2862 25H25.5502L26.9422 13.696C26.9742 13.488 27.0102 13.264 27.0502 13.024C27.0982 12.784 27.1502 12.536 27.2062 12.28L21.2422 22.168C21.1062 22.392 20.9342 22.56 20.7262 22.672C20.5262 22.784 20.3062 22.84 20.0662 22.84H19.6342C19.3942 22.84 19.1822 22.784 18.9982 22.672C18.8222 22.56 18.6942 22.392 18.6142 22.168L15.0382 12.28C15.0302 12.528 15.0182 12.768 15.0022 13C14.9942 13.232 14.9782 13.448 14.9542 13.648L13.5862 25H10.8382L12.9742 7.648H15.3142C15.4502 7.648 15.5622 7.656 15.6502 7.672C15.7462 7.68 15.8302 7.704 15.9022 7.744C15.9742 7.776 16.0422 7.828 16.1062 7.9C16.1702 7.964 16.2382 8.048 16.3102 8.152L19.8982 18.064C20.0422 18.488 20.1622 18.92 20.2582 19.36C20.3622 19.136 20.4662 18.916 20.5702 18.7C20.6822 18.484 20.8022 18.272 20.9302 18.064L26.9542 8.152C27.0502 8.048 27.1342 7.964 27.2062 7.9C27.2862 7.828 27.3662 7.776 27.4462 7.744C27.5262 7.704 27.6142 7.68 27.7102 7.672C27.8062 7.656 27.9222 7.648 28.0582 7.648H30.4222ZM42.1976 12.688L34.0616 28.408C33.9496 28.616 33.8176 28.768 33.6656 28.864C33.5136 28.968 33.3256 29.02 33.1016 29.02H30.9056L33.6416 24.052L30.5336 12.688H33.0176C33.2336 12.688 33.3936 12.744 33.4976 12.856C33.6096 12.96 33.6856 13.088 33.7256 13.24L35.2376 19.624C35.3176 20.032 35.3776 20.44 35.4176 20.848C35.5056 20.64 35.5936 20.436 35.6816 20.236C35.7776 20.028 35.8736 19.82 35.9696 19.612L39.0056 13.228C39.0856 13.068 39.2016 12.94 39.3536 12.844C39.5056 12.74 39.6616 12.688 39.8216 12.688H42.1976ZM52.6136 22.552C53.1016 22.552 53.5256 22.516 53.8856 22.444C54.2456 22.364 54.5616 22.264 54.8336 22.144C55.1056 22.024 55.3336 21.9 55.5176 21.772C55.7096 21.636 55.8776 21.508 56.0216 21.388C56.1656 21.268 56.2936 21.172 56.4056 21.1C56.5176 21.02 56.6296 20.98 56.7416 20.98C56.8456 20.98 56.9296 21 56.9936 21.04C57.0576 21.08 57.1096 21.12 57.1496 21.16L58.2416 22.516C57.4896 23.38 56.6056 24.044 55.5896 24.508C54.5736 24.964 53.4056 25.192 52.0856 25.192C51.0136 25.192 50.0616 25.004 49.2296 24.628C48.3976 24.244 47.6936 23.716 47.1176 23.044C46.5496 22.372 46.1136 21.576 45.8096 20.656C45.5136 19.736 45.3656 18.732 45.3656 17.644C45.3656 16.644 45.4736 15.7 45.6896 14.812C45.9056 13.916 46.2136 13.092 46.6136 12.34C47.0136 11.58 47.4896 10.9 48.0416 10.3C48.6016 9.7 49.2216 9.188 49.9016 8.764C50.5896 8.34 51.3256 8.016 52.1096 7.792C52.9016 7.568 53.7256 7.456 54.5816 7.456C55.2136 7.456 55.7896 7.516 56.3096 7.636C56.8296 7.748 57.2976 7.908 57.7136 8.116C58.1376 8.324 58.5176 8.576 58.8536 8.872C59.1976 9.16 59.5056 9.484 59.7776 9.844L58.6976 11.14C58.6176 11.236 58.5216 11.32 58.4096 11.392C58.3056 11.464 58.1736 11.5 58.0136 11.5C57.8376 11.5 57.6696 11.428 57.5096 11.284C57.3496 11.14 57.1456 10.984 56.8976 10.816C56.6576 10.64 56.3416 10.48 55.9496 10.336C55.5656 10.192 55.0576 10.12 54.4256 10.12C53.5936 10.12 52.8176 10.292 52.0976 10.636C51.3856 10.972 50.7656 11.456 50.2376 12.088C49.7096 12.72 49.2936 13.484 48.9896 14.38C48.6936 15.268 48.5456 16.268 48.5456 17.38C48.5456 18.188 48.6456 18.912 48.8456 19.552C49.0536 20.192 49.3376 20.736 49.6976 21.184C50.0656 21.624 50.4976 21.964 50.9936 22.204C51.4896 22.436 52.0296 22.552 52.6136 22.552ZM58.8324 25L60.9924 7.168H63.9204L61.7484 25H58.8324ZM68.6192 22.9C69.1152 22.9 69.5632 22.76 69.9632 22.48C70.3632 22.192 70.7032 21.812 70.9832 21.34C71.2632 20.86 71.4792 20.304 71.6312 19.672C71.7832 19.04 71.8592 18.376 71.8592 17.68C71.8592 16.68 71.6912 15.948 71.3552 15.484C71.0192 15.012 70.5072 14.776 69.8192 14.776C69.3232 14.776 68.8712 14.916 68.4632 15.196C68.0632 15.476 67.7232 15.856 67.4432 16.336C67.1632 16.808 66.9472 17.36 66.7952 17.992C66.6432 18.624 66.5672 19.292 66.5672 19.996C66.5672 20.996 66.7352 21.732 67.0712 22.204C67.4072 22.668 67.9232 22.9 68.6192 22.9ZM68.3432 25.18C67.6632 25.18 67.0352 25.068 66.4592 24.844C65.8832 24.612 65.3832 24.276 64.9592 23.836C64.5352 23.396 64.2032 22.856 63.9632 22.216C63.7232 21.576 63.6032 20.844 63.6032 20.02C63.6032 18.956 63.7752 17.964 64.1192 17.044C64.4632 16.124 64.9272 15.328 65.5112 14.656C66.1032 13.984 66.7912 13.456 67.5752 13.072C68.3592 12.688 69.1952 12.496 70.0832 12.496C70.7632 12.496 71.3912 12.612 71.9672 12.844C72.5512 13.068 73.0512 13.4 73.4672 13.84C73.8912 14.28 74.2232 14.82 74.4632 15.46C74.7032 16.1 74.8232 16.832 74.8232 17.656C74.8232 18.712 74.6512 19.7 74.3072 20.62C73.9632 21.532 73.4952 22.328 72.9032 23.008C72.3192 23.68 71.6352 24.212 70.8512 24.604C70.0672 24.988 69.2312 25.18 68.3432 25.18ZM84.7627 12.688L84.6067 13.912C84.5907 14.12 84.5347 14.324 84.4387 14.524C84.3427 14.716 84.2387 14.88 84.1267 15.016L77.9827 22.72H83.3947L83.1187 25H74.1667L74.3227 23.764C74.3307 23.628 74.3787 23.464 74.4667 23.272C74.5547 23.08 74.6667 22.904 74.8027 22.744L81.0067 14.956H75.7147L75.9907 12.688H84.7627ZM90.5786 14.584C90.1786 14.584 89.8066 14.668 89.4626 14.836C89.1186 14.996 88.8066 15.224 88.5266 15.52C88.2546 15.816 88.0146 16.172 87.8066 16.588C87.6066 16.996 87.4466 17.444 87.3266 17.932C88.3186 17.796 89.1146 17.648 89.7146 17.488C90.3226 17.32 90.7906 17.144 91.1186 16.96C91.4466 16.768 91.6626 16.564 91.7666 16.348C91.8786 16.124 91.9346 15.892 91.9346 15.652C91.9346 15.532 91.9066 15.408 91.8506 15.28C91.8026 15.152 91.7226 15.04 91.6106 14.944C91.5066 14.84 91.3666 14.756 91.1906 14.692C91.0226 14.62 90.8186 14.584 90.5786 14.584ZM87.0746 19.984C87.0746 21.92 87.8946 22.888 89.5346 22.888C89.8866 22.888 90.1986 22.856 90.4706 22.792C90.7426 22.72 90.9786 22.636 91.1786 22.54C91.3866 22.444 91.5706 22.336 91.7306 22.216C91.8986 22.096 92.0506 21.988 92.1866 21.892C92.3306 21.796 92.4706 21.716 92.6066 21.652C92.7426 21.58 92.8906 21.544 93.0506 21.544C93.1466 21.544 93.2386 21.568 93.3266 21.616C93.4226 21.664 93.5066 21.728 93.5786 21.808L94.3346 22.72C93.9106 23.144 93.4946 23.512 93.0866 23.824C92.6786 24.136 92.2626 24.392 91.8386 24.592C91.4146 24.792 90.9666 24.94 90.4946 25.036C90.0226 25.132 89.5106 25.18 88.9586 25.18C88.2386 25.18 87.5866 25.06 87.0026 24.82C86.4186 24.572 85.9186 24.228 85.5026 23.788C85.0866 23.34 84.7626 22.804 84.5306 22.18C84.3066 21.548 84.1946 20.844 84.1946 20.068C84.1946 19.42 84.2626 18.784 84.3986 18.16C84.5426 17.536 84.7466 16.944 85.0106 16.384C85.2746 15.824 85.5986 15.308 85.9826 14.836C86.3666 14.364 86.7986 13.956 87.2786 13.612C87.7666 13.268 88.2986 13 88.8746 12.808C89.4586 12.616 90.0826 12.52 90.7466 12.52C91.3866 12.52 91.9466 12.612 92.4266 12.796C92.9146 12.98 93.3186 13.22 93.6386 13.516C93.9666 13.804 94.2106 14.128 94.3706 14.488C94.5306 14.848 94.6106 15.2 94.6106 15.544C94.6106 16.096 94.4986 16.6 94.2746 17.056C94.0586 17.512 93.6666 17.92 93.0986 18.28C92.5386 18.64 91.7706 18.952 90.7946 19.216C89.8186 19.472 88.5786 19.676 87.0746 19.828V19.984ZM95.8207 22.492C95.8207 22.436 95.8207 22.372 95.8207 22.3C95.8207 22.22 95.8247 22.108 95.8327 21.964C95.8487 21.812 95.8687 21.616 95.8927 21.376C95.9247 21.128 95.9647 20.812 96.0127 20.428L96.6967 14.908H95.5327C95.3887 14.908 95.2687 14.856 95.1727 14.752C95.0847 14.648 95.0567 14.492 95.0887 14.284L95.2207 13.108L97.0927 12.784L98.0767 9.424C98.1327 9.264 98.2167 9.14 98.3287 9.052C98.4407 8.964 98.5807 8.92 98.7487 8.92H100.333L99.8527 12.796H102.829L102.577 14.908H99.5887L98.9287 20.272C98.8887 20.6 98.8567 20.86 98.8327 21.052C98.8087 21.244 98.7887 21.396 98.7727 21.508C98.7647 21.612 98.7607 21.688 98.7607 21.736C98.7607 21.776 98.7607 21.804 98.7607 21.82C98.7607 22.124 98.8327 22.364 98.9767 22.54C99.1287 22.716 99.3407 22.804 99.6127 22.804C99.7807 22.804 99.9247 22.784 100.045 22.744C100.165 22.696 100.269 22.648 100.357 22.6C100.445 22.552 100.525 22.508 100.597 22.468C100.669 22.42 100.737 22.396 100.801 22.396C100.889 22.396 100.957 22.42 101.005 22.468C101.053 22.508 101.097 22.572 101.137 22.66L101.773 24.1C101.333 24.46 100.845 24.732 100.309 24.916C99.7807 25.1 99.2407 25.192 98.6887 25.192C97.8167 25.192 97.1247 24.956 96.6127 24.484C96.1087 24.012 95.8447 23.348 95.8207 22.492Z" fill="#161A29"/>
<path d="M4.63086 8.05108C4.63086 6.68317 5.47768 4.36011 6.80923 3.69434" stroke="#161A29" stroke-width="2" stroke-linecap="round"/>
<path d="M1 5.87266C1 4.70514 1.63223 2 3.17837 2" stroke="#161A29" stroke-width="2" stroke-linecap="round"/>
<path d="M106.42 8.9874C106.42 8.0636 106.501 7.14608 106.232 6.27116C105.921 5.26018 105.15 5.11475 104 5.11475" stroke="#161A29" stroke-width="2" stroke-linecap="round"/>
<path d="M109.082 5.59878C109.082 3.99965 107.538 1.53406 105.936 1" stroke="#161A29" stroke-width="2" stroke-linecap="round"/>
</svg>
