<svg width="41" height="37" viewBox="0 0 41 37" fill="none" xmlns="http://www.w3.org/2000/svg">
<path d="M5.78418 11.9499C8.00235 11.9499 9.18984 11.5112 11.1325 10.3277C12.891 9.25635 15.4298 5.96957 15.5084 3.767C15.5245 3.31392 15.2146 1.35749 15.5084 1.06341C15.871 0.700442 15.9741 1.99816 16.3367 2.36114C17.4 3.42539 18.5639 3.19024 20.0463 3.19024C21.184 3.19024 22.8186 3.30554 23.7919 2.68557C24.2158 2.41563 26.8232 1.05598 26.8533 1.56808C26.9315 2.89936 26.6687 4.30551 26.8713 5.62346C27.1869 7.67696 28.8018 7.93452 30.2387 8.84974C31.3536 9.55984 33.6804 10.1447 34.9568 9.60675C35.5142 9.37181 35.9599 9.31805 36.5775 9.35441C37.2778 9.39565 36.5775 10.4396 36.5775 10.8143C36.5775 12.0148 36.046 14.5283 37.2257 15.2663C37.672 15.5454 38.2532 16.5252 38.5223 16.9965C38.73 17.3604 39.9726 18.1289 39.9989 18.3664C40.0602 18.9185 37.4802 19.037 37.2257 19.61C36.6431 20.9221 35.9292 21.8671 35.9292 23.377C35.9292 25.0061 35.9217 27.1847 36.7395 28.658C37.714 30.4136 34.5653 29.7109 33.6602 29.8115C32.1272 29.982 30.7565 30.6689 30.0226 32.0645C29.6958 32.686 28.8755 33.3143 28.7981 34.0111C28.7562 34.3883 28.6028 35.4834 28.456 34.8222C27.9301 32.4536 24.5925 31.9126 23.2877 30.2802C22.5527 29.3605 20.4232 30.4881 19.7222 30.8389C18.3315 31.5349 18.075 32.7156 17.2911 33.8489C16.8641 34.4663 16.5842 35.4855 15.9946 35.9577C15.7041 36.1903 15.7683 35.4074 15.5804 34.9844C15.3651 34.4996 15.5084 33.7237 15.5084 33.2C15.5084 32.3133 15.2177 32.1153 14.9321 31.3436C14.3002 29.6357 14.0767 28.9043 12.429 28.1714C11.0252 27.5469 9.57658 27.5225 8.05316 27.5225C6.22852 27.5225 6.54789 27.7598 7.08074 26.0265C7.56046 24.466 7.72902 22.8108 7.72902 21.1961C7.72902 18.1954 2.91083 18.7629 1.08416 18.7629C0.583422 18.7629 2.47806 16.134 2.54278 15.5186C2.61195 14.8609 3.49547 11.7975 3.83934 11.6254" stroke="black" stroke-width="2" stroke-linecap="round"/>
<path d="M19.9419 14.6316C17.8567 14.8314 16.1315 18.8749 17.4744 20.4481C19.0256 22.2653 21.9663 22.3028 24.146 21.4993C25.1777 21.1189 25.0379 19.8693 25.6997 19.3619C26.0984 19.0561 26.1079 15.8112 25.6814 15.5776C24.5631 14.9651 23.984 14.0009 22.574 14.0009C21.4128 14.0009 20.3753 13.9675 19.2839 14.3162" stroke="black" stroke-width="2" stroke-linecap="round"/>
</svg>
