<svg width="54" height="47" viewBox="0 0 54 47" fill="none" xmlns="http://www.w3.org/2000/svg">
<path d="M18.2602 3.15839C15.4235 3.15839 12.6795 4.90928 10.4506 6.56504C7.98927 8.39344 4.98217 10.3381 3.50873 13.1212C2.60809 14.8224 2.08562 16.5015 1.83755 18.424C1.56427 20.5419 1.273 22.9648 1.19479 25.0766C1.07624 28.2773 0.375714 32.6595 2.641 35.2484C4.15865 36.9828 5.53733 40.0869 7.70277 41.0493C10.1307 42.1284 12.2827 43.827 14.8535 44.7452C17.6719 45.7518 20.4569 45.6772 23.4023 45.6772C27.2636 45.6772 30.4709 44.4742 34.1686 43.6525C35.6405 43.3254 37.6372 41.7604 38.7804 40.7601C40.2448 39.4787 41.9181 38.3837 43.4244 37.1284C46.9472 34.1928 49.917 30.4113 51.6517 26.1533C52.6444 23.7167 52.6224 20.7593 52.0856 18.3437C51.4917 15.6712 51.0579 13.3714 49.4985 11.0322C47.7585 8.4223 44.9306 4.2544 41.9139 3.09411C38.5272 1.79155 34.381 1.65134 30.7137 1.40686C28.0328 1.22813 25.0209 0.762416 22.3096 1.14975C21.296 1.29455 20.4422 2.14846 19.4332 2.27459C18.6791 2.36885 17.7409 2.75069 17.3924 3.44763" stroke="#161A29" stroke-width="1.5" stroke-linecap="round"/>
<path d="M12.4068 29.8145C12.4068 31.7188 12.4068 33.6232 12.4068 35.5275C12.4068 35.9048 11.7846 38.7261 12.0792 38.988C12.1703 39.069 13.5236 38.0381 13.7378 37.9642C14.752 37.6145 15.895 37.302 16.9321 37.0427C17.5053 36.8995 18.2719 36.8519 18.8569 36.8175C19.2738 36.793 20.3026 35.5356 20.5872 35.251C21.3337 34.5046 22.0771 33.5938 22.6246 32.6812C23.2292 31.6736 24.2328 30.858 25.0306 29.9988C25.7883 29.1829 26.3972 28.3539 27.0578 27.4392C27.5073 26.8168 28.0183 25.9496 28.6243 25.4735C30.9781 23.6241 31.9665 20.8314 34.112 18.9005C34.2979 18.7332 35.0241 18.2303 34.8901 18.1634C34.3968 17.9167 33.9124 17.5983 33.4567 17.2829C32.5802 16.676 31.8106 15.5664 30.7948 15.2147C30.0872 14.9698 29.4789 14.5261 28.8086 14.1909C28.5942 14.0837 28.0935 13.5971 27.8871 13.5971C27.4506 13.5971 27.2227 14.5834 27.0476 14.8461C26.0297 16.373 24.5161 17.4984 23.3823 18.9415C22.3021 20.3162 21.3542 21.7581 20.2289 23.088C19.6383 23.7859 18.8704 24.2949 18.3041 25.023C17.9149 25.5234 17.5299 26.5957 16.9219 26.8659C16.5247 27.0424 16.1242 27.5715 15.8162 27.8795C15.4781 28.2175 14.8931 28.4574 14.6183 28.8009C14.3236 29.1693 12.848 30.038 12.9597 29.8145" stroke="#161A29" stroke-width="2" stroke-linecap="round"/>
<path d="M27.5186 13.2285C27.6485 12.059 29.249 10.5767 30.0065 9.81915C30.8119 9.01373 31.5097 8.32077 32.2077 7.42339C32.4861 7.06542 32.7735 6.68916 33.0472 6.31766C33.5794 5.59544 33.2388 6.28836 33.641 6.59409C34.929 7.57292 36.277 8.53386 37.4292 9.68605C37.9203 10.1772 38.9445 10.9881 38.9445 11.662C38.9445 12.3651 37.9725 13.4191 37.5725 14.0476C37.0828 14.8172 36.6221 15.5594 36.2211 16.3614C36.053 16.6976 35.2587 18.2278 35.2587 17.6514" stroke="#161A29" stroke-width="2" stroke-linecap="round"/>
<path d="M12.4062 29.9988C14.3764 29.9988 15.8452 30.9049 16.9213 32.5789C17.55 33.5569 18.6721 35.1006 18.6721 36.2646" stroke="#161A29" stroke-width="2" stroke-linecap="round"/>
<path d="M12.4062 36.0804C12.7395 36.122 13.6963 37.1265 13.6963 37.3704" stroke="#161A29" stroke-width="2" stroke-linecap="round"/>
<path d="M29.124 10.6033C30.0284 10.6787 30.9735 11.2161 31.7586 11.6479C32.6591 12.1432 33.6371 12.5047 34.4854 13.092C34.9456 13.4105 35.3897 13.779 35.8296 14.1212C35.9311 14.2002 36.5778 14.8141 36.1753 14.6128" stroke="#161A29" stroke-width="2" stroke-linecap="round"/>
</svg>
