<svg width="36" height="38" viewBox="0 0 36 38" fill="none" xmlns="http://www.w3.org/2000/svg">
<path d="M13.7303 21.4829C13.7303 22.6962 13.7303 23.9094 13.7303 25.1227C13.7303 26.1106 12.8514 28.7822 13.9312 28.0836C14.9189 27.4446 15.6221 26.6117 16.7443 26.0471C17.8972 25.467 20.7967 24.5589 21.3657 23.8228" stroke="black" stroke-width="2" stroke-linecap="round"/>
<path d="M13.9136 21.2307C14.5849 19.4624 16.113 17.8883 17.172 16.2922C18.1968 14.7478 19.4353 13.3293 20.5484 11.8414C21.7688 10.2103 23.0774 8.59939 24.264 6.96387" stroke="black" stroke-width="2" stroke-linecap="round"/>
<path d="M20.9463 24.0352C22.3307 22.763 23.3109 21.1688 24.3964 19.6725C25.0658 18.7498 25.8022 17.8812 26.3795 16.9085C26.6175 16.5075 27.0056 16.2079 27.242 15.8043C27.5775 15.2318 27.7864 14.5793 28.311 14.0972C28.6036 13.8283 28.8018 13.363 29.0408 13.0336C29.2882 12.6927 29.9154 12.1438 29.9697 11.7194C30.0312 11.2391 31.1568 10.2168 31.4957 9.83609C32.1749 9.07334 32.7079 8.08255 33.1839 7.20763C33.3511 6.90042 33.4312 6.54393 33.582 6.23212C33.7191 5.94875 33.9735 5.8032 34.0833 5.50049" stroke="black" stroke-width="2" stroke-linecap="round"/>
<path d="M23.6006 7.32972C23.9148 6.07864 25.5214 5.24539 26.0555 4.03737C26.3733 3.31852 26.9188 2.70915 27.3898 2.07958C27.6528 1.72806 28.0127 1.2467 28.4072 1.016C28.5907 0.908669 29.5021 1.37265 29.6752 1.47666C31.049 2.30209 33.2799 3.85235 34.6535 4.69382" stroke="black" stroke-width="2" stroke-linecap="round"/>
<path d="M24.5293 6.72021C24.6746 7.20975 25.4675 7.50917 25.9152 7.72282C26.684 8.08964 27.3342 8.66583 28.0089 9.15899C28.7995 9.73685 29.6624 10.1087 30.5007 10.6223" stroke="black" stroke-width="2" stroke-linecap="round"/>
<path d="M17.1158 8.42188C13.7398 8.42188 10.3197 8.65512 7.01942 8.65512C6.30855 8.65512 5.6522 8.85161 4.93246 8.88836C4.02992 8.93443 3.80232 9.75479 3.21212 10.1841C2.36393 10.8012 1.37897 12.5013 1.37897 13.5014C1.37897 16.0798 1.12515 18.6273 1.12515 21.2502C1.12515 22.8276 0.809062 24.7375 1.18156 26.2778C1.35618 26.9999 1.12243 28.0668 1.43538 28.7139C1.6365 29.1297 1.86087 29.897 1.88661 30.3466C1.95466 31.5347 2.90781 33.7658 4.2274 34.2599C6.21092 35.0025 8.42885 36.3016 10.6293 36.4109C14.8841 36.6222 19.2242 36.8197 23.2075 35.1928C26.3325 33.9165 28.9493 33.697 30.8221 30.7612C32.6369 27.9164 32.345 23.5544 32.345 20.369C32.345 19.0365 32.2917 17.8376 31.8374 16.5853" stroke="black" stroke-width="2" stroke-linecap="round"/>
</svg>
