<svg width="39" height="37" viewBox="0 0 39 37" fill="none" xmlns="http://www.w3.org/2000/svg">
<path d="M1.17816 34.3643C1.17816 28.3741 1.4579 22.4673 1.4579 16.4608" stroke="#161A29" stroke-width="2" stroke-linecap="round"/>
<path d="M1.32086 15.6536C3.17792 14.3467 4.85354 12.6178 6.5609 11.1174C8.00865 9.84514 9.42808 8.59109 10.6799 7.11568C12.306 5.1993 14.4942 3.6269 15.9982 1.69315C16.5569 0.974774 16.9143 0.743811 17.6927 1.34121C19.4576 2.69565 21.2512 3.94908 22.8546 5.51239C25.6785 8.26569 28.701 10.6311 31.7705 13.0726C32.404 13.5766 34.8987 15.1248 35.0944 16.0055C35.7275 18.8546 36.2088 21.8803 36.5152 24.791C36.8671 28.1341 37.4537 31.5702 37.4537 34.8931" stroke="#161A29" stroke-width="2" stroke-linecap="round"/>
<path d="M15.164 34.4239C15.164 31.8429 15.164 29.262 15.164 26.6811C15.164 25.8382 15.164 24.9953 15.164 24.1523C15.164 23.2334 15.206 23.1265 16.1546 23.1617C17.3856 23.2073 18.6715 23.818 19.9087 23.8656C20.9344 23.905 21.2643 23.6452 21.2643 24.8041C21.2643 26.6029 21.2643 28.4017 21.2643 30.2005C21.2643 31.7819 21.7336 33.3333 21.7336 34.8931" stroke="#161A29" stroke-width="2" stroke-linecap="round"/>
<path d="M1 35.0887C3.90823 35.0887 6.96109 35.3484 9.84301 34.9825C11.4846 34.774 13.133 34.8156 14.7878 34.8156" stroke="#161A29" stroke-width="2" stroke-linecap="round"/>
<path d="M22.5691 35.2252C25.9768 35.2252 29.3846 35.2252 32.7924 35.2252C33.9996 35.2252 35.6957 35.4875 36.7664 34.9521" stroke="#161A29" stroke-width="2" stroke-linecap="round"/>
</svg>
