<svg width="25" height="24" viewBox="0 0 25 24" fill="none" xmlns="http://www.w3.org/2000/svg">
<path d="M1.1123 22.0509C1.1123 18.2715 1.28881 14.5446 1.28881 10.7549" stroke="#D0D0D0" stroke-width="2" stroke-linecap="round"/>
<path d="M1.20215 10.2455C2.37384 9.42098 3.43105 8.33013 4.50829 7.38346C5.42173 6.58074 6.31731 5.78951 7.10715 4.85862C8.13308 3.6495 9.5137 2.65741 10.4626 1.43734C10.8152 0.984084 11.0407 0.838361 11.5318 1.21528C12.6453 2.06985 13.7769 2.86069 14.7886 3.84704C16.5703 5.58421 18.4774 7.0766 20.414 8.6171C20.8137 8.93507 22.3877 9.9119 22.5112 10.4676C22.9106 12.2651 23.2143 14.1742 23.4076 16.0107C23.6296 18.1199 23.9997 20.2879 23.9997 22.3845" stroke="#D0D0D0" stroke-width="2" stroke-linecap="round"/>
<path d="M9.93652 22.0883C9.93652 20.4599 9.93652 18.8315 9.93652 17.2031C9.93652 16.6713 9.93652 16.1394 9.93652 15.6076C9.93652 15.0278 9.96303 14.9604 10.5616 14.9825C11.3382 15.0113 12.1496 15.3966 12.9301 15.4267C13.5773 15.4515 13.7855 15.2876 13.7855 16.0188C13.7855 17.1537 13.7855 18.2887 13.7855 19.4236C13.7855 20.4214 14.0815 21.4002 14.0815 22.3844" stroke="#D0D0D0" stroke-width="2" stroke-linecap="round"/>
<path d="M1 22.5079C2.83491 22.5079 4.76108 22.6718 6.5794 22.4409C7.61513 22.3094 8.65519 22.3356 9.69926 22.3356" stroke="#D0D0D0" stroke-width="2" stroke-linecap="round"/>
<path d="M14.6084 22.5936C16.7585 22.5936 18.9086 22.5936 21.0587 22.5936C21.8204 22.5936 22.8905 22.7592 23.5661 22.4214" stroke="#D0D0D0" stroke-width="2" stroke-linecap="round"/>
</svg>
