<svg width="197" height="61" viewBox="0 0 197 61" fill="none" xmlns="http://www.w3.org/2000/svg">
<path d="M25.72 49.92C27.1867 49.92 28.4533 49.8133 29.52 49.6C30.6133 49.36 31.5467 49.0667 32.32 48.72C33.0933 48.3733 33.7467 48 34.28 47.6C34.8133 47.1733 35.2933 46.7867 35.72 46.44C36.1467 46.0933 36.5467 45.8133 36.92 45.6C37.2933 45.36 37.6933 45.24 38.12 45.24C38.5467 45.24 38.8933 45.32 39.16 45.48C39.4533 45.6133 39.6667 45.7733 39.8 45.96L44.36 51.44C41.8267 54.4533 38.8133 56.7467 35.32 58.32C31.8533 59.8667 27.9067 60.64 23.48 60.64C19.8 60.64 16.5333 60 13.68 58.72C10.8533 57.4133 8.46667 55.6267 6.52 53.36C4.57333 51.0933 3.09333 48.4133 2.08 45.32C1.09333 42.2 0.6 38.84 0.6 35.24C0.6 31.9067 0.973333 28.7467 1.72 25.76C2.46667 22.7733 3.52 20.0133 4.88 17.48C6.24 14.9467 7.86667 12.6667 9.76 10.64C11.68 8.61333 13.8 6.89333 16.12 5.48C18.44 4.06667 20.9333 2.98666 23.6 2.24C26.2667 1.46666 29.0533 1.08 31.96 1.08C34.1467 1.08 36.1333 1.29333 37.92 1.72C39.7333 2.12 41.36 2.69333 42.8 3.44C44.2667 4.16 45.5733 5.02666 46.72 6.04C47.8667 7.05333 48.8667 8.17333 49.72 9.4L45.16 14.68C44.84 15.0533 44.4667 15.3867 44.04 15.68C43.6133 15.9733 43.0533 16.12 42.36 16.12C41.9067 16.12 41.4933 16.0133 41.12 15.8C40.7467 15.5867 40.36 15.3333 39.96 15.04C39.5867 14.72 39.16 14.3733 38.68 14C38.2 13.6267 37.6267 13.2933 36.96 13C36.2933 12.68 35.4933 12.4133 34.56 12.2C33.6533 11.9867 32.5733 11.88 31.32 11.88C28.8667 11.88 26.5733 12.4 24.44 13.44C22.3333 14.48 20.4933 15.9733 18.92 17.92C17.3733 19.84 16.16 22.1867 15.28 24.96C14.4 27.7067 13.96 30.7867 13.96 34.2C13.96 36.68 14.2533 38.8933 14.84 40.84C15.4533 42.7867 16.28 44.44 17.32 45.8C18.36 47.1333 19.6 48.16 21.04 48.88C22.48 49.5733 24.04 49.92 25.72 49.92ZM45.095 60L52.375 0.119996H64.615L57.335 60H45.095ZM79.8531 51.44C81.2398 51.44 82.4798 51.0267 83.5731 50.2C84.6665 49.3467 85.5865 48.2 86.3331 46.76C87.1065 45.2933 87.6931 43.6 88.0931 41.68C88.5198 39.7333 88.7331 37.6667 88.7331 35.48C88.7331 32.4667 88.3198 30.32 87.4931 29.04C86.6931 27.7333 85.3731 27.08 83.5331 27.08C82.1465 27.08 80.9065 27.5067 79.8131 28.36C78.7198 29.1867 77.7865 30.32 77.0131 31.76C76.2665 33.2 75.6798 34.8933 75.2531 36.84C74.8531 38.7867 74.6531 40.8533 74.6531 43.04C74.6531 46 75.0531 48.1467 75.8531 49.48C76.6798 50.7867 78.0131 51.44 79.8531 51.44ZM78.7331 60.64C76.4131 60.64 74.2398 60.2533 72.2131 59.48C70.2131 58.7067 68.4665 57.5867 66.9731 56.12C65.5065 54.6267 64.3465 52.8 63.4931 50.64C62.6665 48.4533 62.2531 45.9467 62.2531 43.12C62.2531 39.44 62.8531 36.0667 64.0531 33C65.2798 29.9067 66.9198 27.24 68.9731 25C71.0265 22.76 73.3998 21.0133 76.0931 19.76C78.8131 18.5067 81.6665 17.88 84.6531 17.88C86.9731 17.88 89.1331 18.2667 91.1331 19.04C93.1331 19.8133 94.8665 20.9467 96.3331 22.44C97.8265 23.9067 98.9998 25.7333 99.8531 27.92C100.706 30.08 101.133 32.5733 101.133 35.4C101.133 39.0267 100.52 42.3867 99.2931 45.48C98.0931 48.5467 96.4665 51.2133 94.4131 53.48C92.3598 55.72 89.9731 57.48 87.2531 58.76C84.5598 60.0133 81.7198 60.64 78.7331 60.64ZM134.576 18.52L133.936 23.48C133.856 24.3333 133.616 25.16 133.216 25.96C132.816 26.7333 132.389 27.3867 131.936 27.92L114.016 50.8H130.336L129.216 60H98.1756L98.8156 54.96C98.869 54.4533 99.069 53.8133 99.4156 53.04C99.789 52.2667 100.256 51.5467 100.816 50.88L118.896 27.72H103.136L104.256 18.52H134.576ZM153.903 26.32C151.85 26.32 150.05 27.1467 148.503 28.8C146.956 30.4267 145.81 32.6667 145.063 35.52C147.623 35.12 149.703 34.6933 151.303 34.24C152.903 33.7867 154.143 33.3067 155.023 32.8C155.903 32.2667 156.49 31.7067 156.783 31.12C157.103 30.5333 157.263 29.8933 157.263 29.2C157.263 28.5067 156.996 27.8533 156.463 27.24C155.93 26.6267 155.076 26.32 153.903 26.32ZM167.583 52.32C166.116 53.76 164.676 55.0133 163.263 56.08C161.876 57.12 160.436 57.9867 158.943 58.68C157.476 59.3467 155.903 59.84 154.223 60.16C152.57 60.48 150.756 60.64 148.783 60.64C146.33 60.64 144.076 60.2267 142.023 59.4C139.97 58.5467 138.196 57.36 136.703 55.84C135.236 54.2933 134.09 52.44 133.263 50.28C132.463 48.12 132.063 45.72 132.063 43.08C132.063 40.8667 132.303 38.7067 132.783 36.6C133.29 34.4933 133.996 32.52 134.903 30.68C135.836 28.8133 136.97 27.1067 138.303 25.56C139.636 23.9867 141.13 22.64 142.783 21.52C144.463 20.4 146.29 19.5333 148.263 18.92C150.263 18.28 152.383 17.96 154.623 17.96C156.836 17.96 158.796 18.28 160.503 18.92C162.236 19.56 163.69 20.4 164.863 21.44C166.036 22.4533 166.93 23.6 167.543 24.88C168.156 26.16 168.463 27.44 168.463 28.72C168.463 30.6133 168.09 32.3467 167.343 33.92C166.596 35.4667 165.29 36.8533 163.423 38.08C161.583 39.3067 159.09 40.3467 155.943 41.2C152.823 42.0533 148.89 42.72 144.143 43.2C144.196 46.0267 144.81 48.0933 145.983 49.4C147.183 50.7067 148.943 51.36 151.263 51.36C152.356 51.36 153.303 51.2667 154.103 51.08C154.903 50.8933 155.596 50.6533 156.183 50.36C156.796 50.0667 157.343 49.76 157.823 49.44C158.303 49.12 158.756 48.8133 159.183 48.52C159.636 48.2267 160.103 47.9867 160.583 47.8C161.063 47.6133 161.61 47.52 162.223 47.52C162.623 47.52 163.01 47.6267 163.383 47.84C163.756 48.0267 164.09 48.28 164.383 48.6L167.583 52.32ZM171.406 51.04C171.406 50.8533 171.406 50.6267 171.406 50.36C171.406 50.0933 171.419 49.72 171.446 49.24C171.499 48.7333 171.566 48.08 171.646 47.28C171.752 46.4533 171.886 45.3733 172.046 44.04L174.166 27.08H170.846C170.286 27.08 169.819 26.88 169.446 26.48C169.072 26.0533 168.952 25.44 169.086 24.64L169.646 19.8L175.926 18.52L179.406 8.4C179.859 7.12 180.766 6.48 182.126 6.48H188.846L187.326 18.6H196.606L195.566 27.08H186.286L184.286 43.36C184.152 44.4533 184.046 45.32 183.966 45.96C183.886 46.5733 183.819 47.0533 183.766 47.4C183.739 47.72 183.726 47.9467 183.726 48.08C183.726 48.1867 183.726 48.2533 183.726 48.28C183.726 49.0533 183.899 49.7067 184.246 50.24C184.619 50.7467 185.192 51 185.966 51C186.392 51 186.739 50.96 187.006 50.88C187.299 50.7733 187.552 50.6667 187.766 50.56C187.979 50.4267 188.179 50.32 188.366 50.24C188.552 50.1333 188.766 50.08 189.006 50.08C189.379 50.08 189.646 50.1733 189.806 50.36C189.992 50.52 190.179 50.7867 190.366 51.16L193.086 57.04C191.432 58.24 189.659 59.1467 187.766 59.76C185.872 60.3467 183.966 60.64 182.046 60.64C180.446 60.64 179.006 60.4267 177.726 60C176.446 59.5467 175.339 58.9067 174.406 58.08C173.499 57.2267 172.779 56.2133 172.246 55.04C171.739 53.8667 171.459 52.5333 171.406 51.04Z" fill="#F7F7F7"/>
</svg>
