<svg width="54" height="47" viewBox="0 0 54 47" fill="none" xmlns="http://www.w3.org/2000/svg">
<path d="M8.38574 25.3608C9.82874 25.3608 10.761 26.3356 11.99 26.906C12.7801 27.2726 13.4375 27.9008 14.2212 28.2282" stroke="#161A29" stroke-width="1.5" stroke-linecap="round"/>
<path d="M8.38574 24.6439C9.04197 24.0211 9.33843 23.108 9.82153 22.3497C10.3652 21.4963 10.7908 20.5615 11.2573 19.6759C11.7528 18.7353 12.6701 17.5913 13.5382 16.9504C14.2874 16.3974 16.0942 16.1558 17.055 16.1052C17.7906 16.0664 17.9469 15.8222 18.2818 16.6486C18.5312 17.264 18.9698 17.7876 19.2178 18.3994C19.8662 19.9997 22.7818 20.4522 24.3248 20.4522C26.3174 20.4522 26.85 19.7338 27.5962 18.1148C27.8087 17.654 28.505 17.0562 28.505 16.5709C28.505 15.7622 28.8274 16.2671 29.4864 16.5709C30.6743 17.1186 31.9493 17.6071 33.094 18.2183C33.8267 18.6094 34.6905 18.9323 35.3749 19.3654" stroke="#161A29" stroke-width="1.5" stroke-linecap="round"/>
<path d="M14.2212 28.2282C15.1934 28.0401 14.9798 26.7749 15.564 26.2099C15.7984 25.9832 15.9465 25.2285 16.1809 25.4553C16.3239 25.5936 16.1809 26.6256 16.1809 26.8154C16.1809 29.3997 15.691 31.9355 15.691 34.5462C15.691 35.178 15.691 35.8098 15.691 36.4416C15.691 37.029 15.567 37.0976 16.0176 37.0734C18.1405 36.9593 20.1274 37.5472 22.2234 37.5472C24.2255 37.5472 26.2275 37.5472 28.2296 37.5472C28.8949 37.5472 29.5603 37.5472 30.2256 37.5472C31.3391 37.5472 31.0422 36.9742 31.0422 35.9677C31.0422 32.9104 30.5522 29.8407 30.5522 26.8066C30.5522 26.3172 30.4255 26.1306 30.6792 26.6487C30.9699 27.242 31.1873 27.7882 31.6047 28.3072C31.7517 28.49 31.871 28.9423 32.1127 29.0092C32.3776 29.0824 32.8945 28.1013 33.0382 27.9123C33.7822 26.9336 34.6138 25.7866 35.1249 24.6743C35.2732 24.3515 35.4773 23.8524 35.7056 23.5686C35.8651 23.3703 36.4043 22.9094 36.4314 22.6999C36.4869 22.2705 37.2539 20.965 36.5131 20.6466C36.2522 20.5344 35.7606 19.9977 35.5332 19.7778C35.1404 19.3979 34.7983 19.4638 34.7983 18.9091" stroke="#161A29" stroke-width="1.5" stroke-linecap="round"/>
<path d="M17.8687 16.7586C18.458 16.7586 19.6694 16.331 20.1958 16.04C20.6669 15.7796 21.3452 15.8005 21.8809 15.8005C23.0074 15.8005 21.6761 13.8577 22.3267 13.2103C22.6337 12.9049 23.217 12.885 23.5661 12.6071C23.9085 12.3346 23.5361 11.1315 23.2897 10.8863C22.6694 10.2691 20.276 9.8656 20.276 11.1701" stroke="#161A29" stroke-width="1.5" stroke-linecap="round"/>
<path d="M8.38574 25.3608C9.82874 25.3608 10.761 26.3356 11.99 26.906C12.7801 27.2726 13.4375 27.9008 14.2212 28.2282" stroke="#161A29" stroke-width="1.5" stroke-linecap="round"/>
<path d="M8.38574 24.6439C9.04197 24.0211 9.33843 23.108 9.82153 22.3497C10.3652 21.4963 10.7908 20.5615 11.2573 19.6759C11.7528 18.7353 12.6701 17.5913 13.5382 16.9504C14.2874 16.3974 16.0942 16.1558 17.055 16.1052C17.7906 16.0664 17.9469 15.8222 18.2818 16.6486C18.5312 17.264 18.9698 17.7876 19.2178 18.3994C19.8662 19.9997 22.7818 20.4522 24.3248 20.4522C26.3174 20.4522 26.85 19.7338 27.5962 18.1148C27.8087 17.654 28.505 17.0562 28.505 16.5709C28.505 15.7622 28.8274 16.2671 29.4864 16.5709C30.6743 17.1186 31.9493 17.6071 33.094 18.2183C33.8267 18.6094 34.6905 18.9323 35.3749 19.3654" stroke="#161A29" stroke-width="1.5" stroke-linecap="round"/>
<path d="M14.2212 28.2282C15.1934 28.0401 14.9798 26.7749 15.564 26.2099C15.7984 25.9832 15.9465 25.2285 16.1809 25.4553C16.3239 25.5936 16.1809 26.6256 16.1809 26.8154C16.1809 29.3997 15.691 31.9355 15.691 34.5462C15.691 35.178 15.691 35.8098 15.691 36.4416C15.691 37.029 15.567 37.0976 16.0176 37.0734C18.1405 36.9593 20.1274 37.5472 22.2234 37.5472C24.2255 37.5472 26.2275 37.5472 28.2296 37.5472C28.8949 37.5472 29.5603 37.5472 30.2256 37.5472C31.3391 37.5472 31.0422 36.9742 31.0422 35.9677C31.0422 32.9104 30.5522 29.8407 30.5522 26.8066C30.5522 26.3172 30.4255 26.1306 30.6792 26.6487C30.9699 27.242 31.1873 27.7882 31.6047 28.3072C31.7517 28.49 31.871 28.9423 32.1127 29.0092C32.3776 29.0824 32.8945 28.1013 33.0382 27.9123C33.7822 26.9336 34.6138 25.7866 35.1249 24.6743C35.2732 24.3515 35.4773 23.8524 35.7056 23.5686C35.8651 23.3703 36.4043 22.9094 36.4314 22.6999C36.4869 22.2705 37.2539 20.965 36.5131 20.6466C36.2522 20.5344 35.7606 19.9977 35.5332 19.7778C35.1404 19.3979 34.7983 19.4638 34.7983 18.9091" stroke="#161A29" stroke-width="1.5" stroke-linecap="round"/>
<path d="M17.8687 16.7586C18.458 16.7586 19.6694 16.331 20.1958 16.04C20.6669 15.7796 21.3452 15.8005 21.8809 15.8005C23.0074 15.8005 21.6761 13.8577 22.3267 13.2103C22.6337 12.9049 23.217 12.885 23.5661 12.6071C23.9085 12.3346 23.5361 11.1315 23.2897 10.8863C22.6694 10.2691 20.276 9.8656 20.276 11.1701" stroke="#161A29" stroke-width="1.5" stroke-linecap="round"/>
<path d="M22.2985 15.3248C22.0547 15.3248 22.7202 15.3249 22.7944 15.3348C23.0823 15.3731 23.273 15.625 23.5617 15.6932C23.9459 15.7841 24.5214 16.2168 24.9091 16.4001C25.7106 16.7792 26.5887 17.0697 27.3512 17.4754" stroke="#161A29" stroke-width="1.5" stroke-linecap="round"/>
<path d="M8.38574 24.6439C9.04197 24.0211 9.33843 23.108 9.82153 22.3497C10.3652 21.4963 10.7908 20.5615 11.2573 19.6759C11.7528 18.7353 12.6701 17.5913 13.5382 16.9504C14.2874 16.3974 16.0942 16.1558 17.055 16.1052C17.7906 16.0664 17.9469 15.8222 18.2818 16.6486C18.5312 17.264 18.9698 17.7876 19.2178 18.3994C19.8662 19.9997 22.7818 20.4522 24.3248 20.4522C26.3174 20.4522 26.85 19.7338 27.5962 18.1148C27.8087 17.654 28.505 17.0562 28.505 16.5709C28.505 15.7622 28.8274 16.2671 29.4864 16.5709C30.6743 17.1186 31.9493 17.6071 33.094 18.2183C33.8267 18.6094 34.6905 18.9323 35.3749 19.3654" stroke="#161A29" stroke-width="1.5" stroke-linecap="round"/>
<path d="M14.2212 28.2282C15.1934 28.0401 14.9798 26.7749 15.564 26.2099C15.7984 25.9832 15.9465 25.2285 16.1809 25.4553C16.3239 25.5936 16.1809 26.6256 16.1809 26.8154C16.1809 29.3997 15.691 31.9355 15.691 34.5462C15.691 35.178 15.691 35.8098 15.691 36.4416C15.691 37.029 15.567 37.0976 16.0176 37.0734C18.1405 36.9593 20.1274 37.5472 22.2234 37.5472C24.2255 37.5472 26.2275 37.5472 28.2296 37.5472C28.8949 37.5472 29.5603 37.5472 30.2256 37.5472C31.3391 37.5472 31.0422 36.9742 31.0422 35.9677C31.0422 32.9104 30.5522 29.8407 30.5522 26.8066C30.5522 26.3172 30.4255 26.1306 30.6792 26.6487C30.9699 27.242 31.1873 27.7882 31.6047 28.3072C31.7517 28.49 31.871 28.9423 32.1127 29.0092C32.3776 29.0824 32.8945 28.1013 33.0382 27.9123C33.7822 26.9336 34.6138 25.7866 35.1249 24.6743C35.2732 24.3515 35.4773 23.8524 35.7056 23.5686C35.8651 23.3703 36.4043 22.9094 36.4314 22.6999C36.4869 22.2705 37.2539 20.965 36.5131 20.6466C36.2522 20.5344 35.7606 19.9977 35.5332 19.7778C35.1404 19.3979 34.7983 19.4638 34.7983 18.9091" stroke="#161A29" stroke-width="1.5" stroke-linecap="round"/>
<path d="M17.8687 16.7586C18.458 16.7586 19.6694 16.331 20.1958 16.04C20.6669 15.7796 21.3452 15.8005 21.8809 15.8005C23.0074 15.8005 21.6761 13.8577 22.3267 13.2103C22.6337 12.9049 23.217 12.885 23.5661 12.6071C23.9085 12.3346 23.5361 11.1315 23.2897 10.8863C22.6694 10.2691 20.276 9.8656 20.276 11.1701" stroke="#161A29" stroke-width="1.5" stroke-linecap="round"/>
<path d="M8.38574 24.6439C9.04197 24.0211 9.33843 23.108 9.82153 22.3497C10.3652 21.4963 10.7908 20.5615 11.2573 19.6759C11.7528 18.7353 12.6701 17.5913 13.5382 16.9504C14.2874 16.3974 16.0942 16.1558 17.055 16.1052C17.7906 16.0664 17.9469 15.8222 18.2818 16.6486C18.5312 17.264 18.9698 17.7876 19.2178 18.3994C19.8662 19.9997 22.7818 20.4522 24.3248 20.4522C26.3174 20.4522 26.85 19.7338 27.5962 18.1148C27.8087 17.654 28.505 17.0562 28.505 16.5709C28.505 15.7622 28.8274 16.2671 29.4864 16.5709C30.6743 17.1186 31.9493 17.6071 33.094 18.2183C33.8267 18.6094 34.6905 18.9323 35.3749 19.3654" stroke="#161A29" stroke-width="1.5" stroke-linecap="round"/>
<path d="M14.2212 28.2282C15.1934 28.0401 14.9798 26.7749 15.564 26.2099C15.7984 25.9832 15.9465 25.2285 16.1809 25.4553C16.3239 25.5936 16.1809 26.6256 16.1809 26.8154C16.1809 29.3997 15.691 31.9355 15.691 34.5462C15.691 35.178 15.691 35.8098 15.691 36.4416C15.691 37.029 15.567 37.0976 16.0176 37.0734C18.1405 36.9593 20.1274 37.5472 22.2234 37.5472C24.2255 37.5472 26.2275 37.5472 28.2296 37.5472C28.8949 37.5472 29.5603 37.5472 30.2256 37.5472C31.3391 37.5472 31.0422 36.9742 31.0422 35.9677C31.0422 32.9104 30.5522 29.8407 30.5522 26.8066C30.5522 26.3172 30.4255 26.1306 30.6792 26.6487C30.9699 27.242 31.1873 27.7882 31.6047 28.3072C31.7517 28.49 31.871 28.9423 32.1127 29.0092C32.3776 29.0824 32.8945 28.1013 33.0382 27.9123C33.7822 26.9336 34.6138 25.7866 35.1249 24.6743C35.2732 24.3515 35.4773 23.8524 35.7056 23.5686C35.8651 23.3703 36.4043 22.9094 36.4314 22.6999C36.4869 22.2705 37.2539 20.965 36.5131 20.6466C36.2522 20.5344 35.7606 19.9977 35.5332 19.7778C35.1404 19.3979 34.7983 19.4638 34.7983 18.9091" stroke="#161A29" stroke-width="1.5" stroke-linecap="round"/>
<path d="M17.8687 16.7586C18.458 16.7586 19.6694 16.331 20.1958 16.04C20.6669 15.7796 21.3452 15.8005 21.8809 15.8005C23.0074 15.8005 21.6761 13.8577 22.3267 13.2103C22.6337 12.9049 23.217 12.885 23.5661 12.6071C23.9085 12.3346 23.5361 11.1315 23.2897 10.8863C22.6694 10.2691 20.276 9.8656 20.276 11.1701" stroke="#161A29" stroke-width="1.5" stroke-linecap="round"/>
<path d="M22.2985 15.3248C22.0547 15.3248 22.7202 15.3249 22.7944 15.3348C23.0823 15.3731 23.273 15.625 23.5617 15.6932C23.9459 15.7841 24.5214 16.2168 24.9091 16.4001C25.7106 16.7792 26.5887 17.0697 27.3512 17.4754" stroke="#161A29" stroke-width="1.5" stroke-linecap="round"/>
<path d="M33.5391 7.40869C33.5391 9.38617 33.8138 11.6542 33.3143 13.586C33.1371 14.2715 33.0257 15.1626 33.8149 14.155C34.3106 13.522 34.7636 12.8794 35.1941 12.2133C35.4461 11.8235 35.8395 11.2355 36.2975 11.0211C37.0664 10.6613 37.0005 10.7316 37.4418 11.4727C37.8933 12.2312 38.8019 12.8843 39.6077 13.3421C39.999 13.5646 40.7244 14.3807 41.1708 14.3807C41.3435 14.3807 40.8949 9.91926 40.8949 9.53101C40.8949 8.83263 40.8099 6.0582 39.7915 6.10821C38.7822 6.15778 37.8282 6.26966 36.7675 6.09918C36.1201 5.99513 35.5952 5.94886 34.9285 6.11724C34.7307 6.1672 33.4942 6.38273 33.3961 6.46946C33.1226 6.71115 33.5082 7.80143 33.723 7.89638" stroke="#161A29" stroke-width="1.5" stroke-linecap="round"/>
<path d="M18.2602 3.24045C15.4235 3.24045 12.6795 4.99135 10.4506 6.6471C7.98927 8.4755 4.98217 10.4201 3.50873 13.2033C2.60809 14.9045 2.08562 16.5835 1.83755 18.5061C1.56427 20.624 1.273 23.0468 1.19479 25.1587C1.07624 28.3593 0.375714 32.7415 2.641 35.3304C4.15865 37.0649 5.53733 40.169 7.70277 41.1314C10.1307 42.2105 12.2827 43.9091 14.8535 44.8273C17.6719 45.8338 20.4569 45.7593 23.4023 45.7593C27.2636 45.7593 30.4709 44.5563 34.1686 43.7346C35.6405 43.4075 37.6372 41.8424 38.7804 40.8421C40.2448 39.5608 41.9181 38.4657 43.4244 37.2105C46.9472 34.2748 49.917 30.4934 51.6517 26.2353C52.6444 23.7988 52.6224 20.8414 52.0856 18.4257C51.4917 15.7533 51.0579 13.4535 49.4985 11.1143C47.7585 8.50436 44.9306 4.33646 41.9139 3.17617C38.5272 1.87361 34.381 1.73341 30.7137 1.48892C28.0328 1.31019 25.0209 0.844478 22.3096 1.23181C21.296 1.37661 20.4422 2.23052 19.4332 2.35665C18.6791 2.45091 17.7409 2.83275 17.3924 3.52969" stroke="#161A29" stroke-width="1.5" stroke-linecap="round"/>
<path d="M8.38574 25.3608C9.82874 25.3608 10.761 26.3356 11.99 26.906C12.7801 27.2726 13.4375 27.9008 14.2212 28.2282" stroke="#161A29" stroke-width="1.5" stroke-linecap="round"/>
<path d="M8.38574 24.6439C9.04197 24.0211 9.33843 23.108 9.82153 22.3497C10.3652 21.4963 10.7908 20.5615 11.2573 19.6759C11.7528 18.7353 12.6701 17.5913 13.5382 16.9504C14.2874 16.3974 16.0942 16.1558 17.055 16.1052C17.7906 16.0664 17.9469 15.8222 18.2818 16.6486C18.5312 17.264 18.9698 17.7876 19.2178 18.3994C19.8662 19.9997 22.7818 20.4522 24.3248 20.4522C26.3174 20.4522 26.85 19.7338 27.5962 18.1148C27.8087 17.654 28.505 17.0562 28.505 16.5709C28.505 15.7622 28.8274 16.2671 29.4864 16.5709C30.6743 17.1185 31.9493 17.6071 33.094 18.2183C33.8267 18.6094 34.6905 18.9323 35.3749 19.3654" stroke="#161A29" stroke-width="1.5" stroke-linecap="round"/>
<path d="M14.2212 28.2282C15.1934 28.0401 14.9798 26.7749 15.564 26.2099C15.7984 25.9832 15.9465 25.2285 16.1809 25.4553C16.3239 25.5936 16.1809 26.6256 16.1809 26.8154C16.1809 29.3997 15.691 31.9355 15.691 34.5462C15.691 35.178 15.691 35.8098 15.691 36.4416C15.691 37.029 15.567 37.0976 16.0176 37.0734C18.1405 36.9593 20.1274 37.5472 22.2234 37.5472C24.2255 37.5472 26.2275 37.5472 28.2296 37.5472C28.8949 37.5472 29.5603 37.5472 30.2256 37.5472C31.3391 37.5472 31.0422 36.9742 31.0422 35.9677C31.0422 32.9104 30.5522 29.8407 30.5522 26.8066C30.5522 26.3172 30.4255 26.1306 30.6792 26.6487C30.9699 27.242 31.1873 27.7882 31.6047 28.3071C31.7517 28.49 31.871 28.9423 32.1127 29.0091C32.3776 29.0823 32.8945 28.1013 33.0382 27.9123C33.7822 26.9336 34.6138 25.7866 35.1249 24.6743C35.2732 24.3515 35.4773 23.8524 35.7056 23.5686C35.8651 23.3703 36.4043 22.9094 36.4314 22.6999C36.4869 22.2705 37.2539 20.965 36.5131 20.6466C36.2522 20.5344 35.7606 19.9977 35.5332 19.7778C35.1404 19.3979 34.7983 19.4638 34.7983 18.9091" stroke="#161A29" stroke-width="1.5" stroke-linecap="round"/>
<path d="M17.8687 16.7586C18.458 16.7586 19.6694 16.331 20.1958 16.04C20.6669 15.7796 21.3452 15.8005 21.8809 15.8005C23.0074 15.8005 21.6761 13.8577 22.3267 13.2103C22.6337 12.9049 23.217 12.885 23.5661 12.6071C23.9085 12.3346 23.5361 11.1315 23.2897 10.8863C22.6694 10.2691 20.276 9.8656 20.276 11.1701" stroke="#161A29" stroke-width="1.5" stroke-linecap="round"/>
<path d="M8.38574 25.3608C9.82874 25.3608 10.761 26.3356 11.99 26.906C12.7801 27.2726 13.4375 27.9008 14.2212 28.2282" stroke="#161A29" stroke-width="1.5" stroke-linecap="round"/>
<path d="M8.38574 24.6439C9.04197 24.0211 9.33843 23.108 9.82153 22.3497C10.3652 21.4963 10.7908 20.5615 11.2573 19.6759C11.7528 18.7353 12.6701 17.5913 13.5382 16.9504C14.2874 16.3974 16.0942 16.1558 17.055 16.1052C17.7906 16.0664 17.9469 15.8222 18.2818 16.6486C18.5312 17.264 18.9698 17.7876 19.2178 18.3994C19.8662 19.9997 22.7818 20.4522 24.3248 20.4522C26.3174 20.4522 26.85 19.7338 27.5962 18.1148C27.8087 17.654 28.505 17.0562 28.505 16.5709C28.505 15.7622 28.8274 16.2671 29.4864 16.5709C30.6743 17.1185 31.9493 17.6071 33.094 18.2183C33.8267 18.6094 34.6905 18.9323 35.3749 19.3654" stroke="#161A29" stroke-width="1.5" stroke-linecap="round"/>
<path d="M14.2212 28.2282C15.1934 28.0401 14.9798 26.7749 15.564 26.2099C15.7984 25.9832 15.9465 25.2285 16.1809 25.4553C16.3239 25.5936 16.1809 26.6256 16.1809 26.8154C16.1809 29.3997 15.691 31.9355 15.691 34.5462C15.691 35.178 15.691 35.8098 15.691 36.4416C15.691 37.029 15.567 37.0976 16.0176 37.0734C18.1405 36.9593 20.1274 37.5472 22.2234 37.5472C24.2255 37.5472 26.2275 37.5472 28.2296 37.5472C28.8949 37.5472 29.5603 37.5472 30.2256 37.5472C31.3391 37.5472 31.0422 36.9742 31.0422 35.9677C31.0422 32.9104 30.5522 29.8407 30.5522 26.8066C30.5522 26.3172 30.4255 26.1306 30.6792 26.6487C30.9699 27.242 31.1873 27.7882 31.6047 28.3071C31.7517 28.49 31.871 28.9423 32.1127 29.0091C32.3776 29.0823 32.8945 28.1013 33.0382 27.9123C33.7822 26.9336 34.6138 25.7866 35.1249 24.6743C35.2732 24.3515 35.4773 23.8524 35.7056 23.5686C35.8651 23.3703 36.4043 22.9094 36.4314 22.6999C36.4869 22.2705 37.2539 20.965 36.5131 20.6466C36.2522 20.5344 35.7606 19.9977 35.5332 19.7778C35.1404 19.3979 34.7983 19.4638 34.7983 18.9091" stroke="#161A29" stroke-width="1.5" stroke-linecap="round"/>
<path d="M17.8687 16.7586C18.458 16.7586 19.6694 16.331 20.1958 16.04C20.6669 15.7796 21.3452 15.8005 21.8809 15.8005C23.0074 15.8005 21.6761 13.8577 22.3267 13.2103C22.6337 12.9049 23.217 12.885 23.5661 12.6071C23.9085 12.3346 23.5361 11.1315 23.2897 10.8863C22.6694 10.2691 20.276 9.8656 20.276 11.1701" stroke="#161A29" stroke-width="1.5" stroke-linecap="round"/>
<path d="M22.2985 15.3248C22.0547 15.3248 22.7202 15.3249 22.7944 15.3348C23.0823 15.3731 23.273 15.625 23.5617 15.6932C23.9459 15.7841 24.5214 16.2168 24.9091 16.4001C25.7106 16.7792 26.5887 17.0697 27.3512 17.4754" stroke="#161A29" stroke-width="1.5" stroke-linecap="round"/>
<path d="M8.38574 24.6439C9.04197 24.0211 9.33843 23.108 9.82153 22.3497C10.3652 21.4963 10.7908 20.5615 11.2573 19.6759C11.7528 18.7353 12.6701 17.5913 13.5382 16.9504C14.2874 16.3974 16.0942 16.1558 17.055 16.1052C17.7906 16.0664 17.9469 15.8222 18.2818 16.6486C18.5312 17.264 18.9698 17.7876 19.2178 18.3994C19.8662 19.9997 22.7818 20.4522 24.3248 20.4522C26.3174 20.4522 26.85 19.7338 27.5962 18.1148C27.8087 17.654 28.505 17.0562 28.505 16.5709C28.505 15.7622 28.8274 16.2671 29.4864 16.5709C30.6743 17.1185 31.9493 17.6071 33.094 18.2183C33.8267 18.6094 34.6905 18.9323 35.3749 19.3654" stroke="#161A29" stroke-width="1.5" stroke-linecap="round"/>
<path d="M14.2212 28.2282C15.1934 28.0401 14.9798 26.7749 15.564 26.2099C15.7984 25.9832 15.9465 25.2285 16.1809 25.4553C16.3239 25.5936 16.1809 26.6256 16.1809 26.8154C16.1809 29.3997 15.691 31.9355 15.691 34.5462C15.691 35.178 15.691 35.8098 15.691 36.4416C15.691 37.029 15.567 37.0976 16.0176 37.0734C18.1405 36.9593 20.1274 37.5472 22.2234 37.5472C24.2255 37.5472 26.2275 37.5472 28.2296 37.5472C28.8949 37.5472 29.5603 37.5472 30.2256 37.5472C31.3391 37.5472 31.0422 36.9742 31.0422 35.9677C31.0422 32.9104 30.5522 29.8407 30.5522 26.8066C30.5522 26.3172 30.4255 26.1306 30.6792 26.6487C30.9699 27.242 31.1873 27.7882 31.6047 28.3071C31.7517 28.49 31.871 28.9423 32.1127 29.0091C32.3776 29.0823 32.8945 28.1013 33.0382 27.9123C33.7822 26.9336 34.6138 25.7866 35.1249 24.6743C35.2732 24.3515 35.4773 23.8524 35.7056 23.5686C35.8651 23.3703 36.4043 22.9094 36.4314 22.6999C36.4869 22.2705 37.2539 20.965 36.5131 20.6466C36.2522 20.5344 35.7606 19.9977 35.5332 19.7778C35.1404 19.3979 34.7983 19.4638 34.7983 18.9091" stroke="#161A29" stroke-width="1.5" stroke-linecap="round"/>
<path d="M17.8687 16.7586C18.458 16.7586 19.6694 16.331 20.1958 16.04C20.6669 15.7796 21.3452 15.8005 21.8809 15.8005C23.0074 15.8005 21.6761 13.8577 22.3267 13.2103C22.6337 12.9049 23.217 12.885 23.5661 12.6071C23.9085 12.3346 23.5361 11.1315 23.2897 10.8863C22.6694 10.2691 20.276 9.8656 20.276 11.1701" stroke="#161A29" stroke-width="1.5" stroke-linecap="round"/>
<path d="M8.38574 24.6439C9.04197 24.0211 9.33843 23.108 9.82153 22.3497C10.3652 21.4963 10.7908 20.5615 11.2573 19.6759C11.7528 18.7353 12.6701 17.5913 13.5382 16.9504C14.2874 16.3974 16.0942 16.1558 17.055 16.1052C17.7906 16.0664 17.9469 15.8222 18.2818 16.6486C18.5312 17.264 18.9698 17.7876 19.2178 18.3994C19.8662 19.9997 22.7818 20.4522 24.3248 20.4522C26.3174 20.4522 26.85 19.7338 27.5962 18.1148C27.8087 17.654 28.505 17.0562 28.505 16.5709C28.505 15.7622 28.8274 16.2671 29.4864 16.5709C30.6743 17.1185 31.9493 17.6071 33.094 18.2183C33.8267 18.6094 34.6905 18.9323 35.3749 19.3654" stroke="#161A29" stroke-width="1.5" stroke-linecap="round"/>
<path d="M14.2212 28.2282C15.1934 28.0401 14.9798 26.7749 15.564 26.2099C15.7984 25.9832 15.9465 25.2285 16.1809 25.4553C16.3239 25.5936 16.1809 26.6256 16.1809 26.8154C16.1809 29.3997 15.691 31.9355 15.691 34.5462C15.691 35.178 15.691 35.8098 15.691 36.4416C15.691 37.029 15.567 37.0976 16.0176 37.0734C18.1405 36.9593 20.1274 37.5472 22.2234 37.5472C24.2255 37.5472 26.2275 37.5472 28.2296 37.5472C28.8949 37.5472 29.5603 37.5472 30.2256 37.5472C31.3391 37.5472 31.0422 36.9742 31.0422 35.9677C31.0422 32.9104 30.5522 29.8407 30.5522 26.8066C30.5522 26.3172 30.4255 26.1306 30.6792 26.6487C30.9699 27.242 31.1873 27.7882 31.6047 28.3071C31.7517 28.49 31.871 28.9423 32.1127 29.0091C32.3776 29.0823 32.8945 28.1013 33.0382 27.9123C33.7822 26.9336 34.6138 25.7866 35.1249 24.6743C35.2732 24.3515 35.4773 23.8524 35.7056 23.5686C35.8651 23.3703 36.4043 22.9094 36.4314 22.6999C36.4869 22.2705 37.2539 20.965 36.5131 20.6466C36.2522 20.5344 35.7606 19.9977 35.5332 19.7778C35.1404 19.3979 34.7983 19.4638 34.7983 18.9091" stroke="#161A29" stroke-width="1.5" stroke-linecap="round"/>
<path d="M17.8687 16.7586C18.458 16.7586 19.6694 16.331 20.1958 16.04C20.6669 15.7796 21.3452 15.8005 21.8809 15.8005C23.0074 15.8005 21.6761 13.8577 22.3267 13.2103C22.6337 12.9049 23.217 12.885 23.5661 12.6071C23.9085 12.3346 23.5361 11.1315 23.2897 10.8863C22.6694 10.2691 20.276 9.8656 20.276 11.1701" stroke="#161A29" stroke-width="1.5" stroke-linecap="round"/>
<path d="M22.2985 15.3248C22.0547 15.3248 22.7202 15.3249 22.7944 15.3348C23.0823 15.3731 23.273 15.625 23.5617 15.6932C23.9459 15.7841 24.5214 16.2168 24.9091 16.4001C25.7106 16.7792 26.5887 17.0697 27.3512 17.4754" stroke="#161A29" stroke-width="1.5" stroke-linecap="round"/>
<path d="M33.5391 7.40869C33.5391 9.38616 33.8138 11.6542 33.3143 13.586C33.1371 14.2715 33.0257 15.1626 33.8149 14.1549C34.3106 13.522 34.7636 12.8794 35.1941 12.2133C35.4461 11.8235 35.8395 11.2355 36.2975 11.0211C37.0664 10.6613 37.0005 10.7316 37.4418 11.4727C37.8933 12.2312 38.8019 12.8843 39.6077 13.3421C39.999 13.5646 40.7244 14.3807 41.1708 14.3807C41.3435 14.3807 40.8949 9.91926 40.8949 9.53101C40.8949 8.83263 40.8099 6.0582 39.7915 6.10821C38.7822 6.15778 37.8282 6.26966 36.7675 6.09918C36.1201 5.99512 35.5952 5.94886 34.9285 6.11724C34.7307 6.1672 33.4942 6.38273 33.3961 6.46945C33.1226 6.71115 33.5082 7.80143 33.723 7.89637" stroke="#161A29" stroke-width="1.5" stroke-linecap="round"/>
</svg>
