<svg width="27" height="27" viewBox="0 0 27 27" fill="none" xmlns="http://www.w3.org/2000/svg">
<path d="M7.03516 14.037C9.73912 14.037 12.4431 14.037 15.1471 14.037C16.9156 14.037 19.2781 13.6399 20.8171 14.4094" stroke="#161A29" stroke-width="1.3" stroke-linecap="round"/>
<path d="M13.7397 19.6241C13.7397 15.6665 13.3672 11.5409 13.3672 7.70459" stroke="#161A29" stroke-width="1.3" stroke-linecap="round"/>
<path d="M16.347 1C12.2505 1 9.48615 1.08605 5.91745 3.15214C4.11108 4.19793 3.07477 7.3885 1.90289 9.02912C0.630848 10.81 1.07515 13.0311 1.07515 15.1337C1.07515 18.6265 3.90499 22.2724 6.84867 23.9078C9.76104 25.5258 12.9898 25.584 16.2643 25.584C18.9166 25.584 22.5861 24.446 23.8795 21.8592C24.6225 20.3732 25.3116 18.9028 25.9489 17.3893C26.555 15.9498 26.0316 13.5597 26.0316 11.9883C26.0316 9.53932 21.9731 5.90584 19.9063 4.72485C17.9873 3.62828 16.8716 1 14.4846 1" stroke="#161A29" stroke-width="1.3" stroke-linecap="round"/>
</svg>
