<svg width="35" height="32" viewBox="0 0 35 32" fill="none" xmlns="http://www.w3.org/2000/svg">
<path d="M16.786 1.69592C12.2761 1.69592 5.5679 1.70925 3.78066 6.58666C3.24382 8.05171 2.10309 9.51612 1.88936 11.0715C1.67672 12.619 1.5912 14.2305 1.46435 15.7882C1.26376 18.2516 0.249018 21.1019 2.05937 23.1147C5.29007 26.7067 8.76064 28.9067 13.7259 29.5519C18.696 30.1978 23.6119 32.0583 28.4525 29.6872C32.5304 27.6898 33.9989 24.2851 33.9989 20.215C33.9989 18.5655 33.9989 16.9159 33.9989 15.2663C33.9989 13.7841 34.0669 10.5767 33.1488 9.42832C32.6682 8.8271 32.9112 7.95076 32.0863 7.53388C31.1401 7.05567 30.207 6.52108 29.4088 5.87142C28.0231 4.7436 25.6883 4.44985 24.0536 3.70634C22.6828 3.08283 21.2646 2.61175 19.846 1.96655C18.0074 1.13026 15.8457 1.79018 14.1084 1" stroke="#161A29" stroke-width="2" stroke-linecap="round"/>
<path d="M16.7144 10.4286C16.7144 13.6985 17.14 16.8092 17.5998 20.0202C17.6833 20.603 18.0262 21.2747 18.0613 21.7949C18.0787 22.0538 18.2858 23.5619 18.2858 22.7747" stroke="#161A29" stroke-width="2" stroke-linecap="round"/>
<path d="M10.4287 16.7143H24.5716" stroke="#161A29" stroke-width="2" stroke-linecap="round"/>
</svg>
