<svg width="22" height="27" viewBox="0 0 22 27" fill="none" xmlns="http://www.w3.org/2000/svg">
<path d="M1 24.143C1 21.2248 3.82108 17.1029 6.77778 15.3832C9.27143 13.9329 12.4936 12.5693 15.6154 13.7161C17.2935 14.3325 18.5562 15.9378 18.8291 17.4036C19.0772 18.7369 20.094 19.9607 20.3675 21.2042C20.6736 22.5956 21 26.8288 21 25.4146" stroke="#D0D0D0" stroke-width="2" stroke-linecap="round"/>
<path d="M13.3055 1.00011C10.4475 1.00011 9.9209 3.31052 9.9209 5.12566C9.9209 7.02021 14.0317 8.12092 16.0747 8.12092C18.4936 8.12092 17.6132 3.82086 17.6132 2.526C17.6132 0.958475 13.7022 1.00011 12.3824 1.00011" stroke="#D0D0D0" stroke-width="2" stroke-linecap="round"/>
</svg>
