<svg width="42" height="42" viewBox="0 0 42 42" fill="none" xmlns="http://www.w3.org/2000/svg">
<path d="M32.6118 2.80868C31.5267 2.80868 30.3854 2.55547 29.3109 2.40156C26.9927 2.06954 24.7132 2.08528 22.3996 1.84178C19.0542 1.4897 15.8195 0.600328 12.4452 1.20567C9.6335 1.71006 8.00437 5.35384 6.61695 7.38871C4.82476 10.0173 2.88798 12.2434 1.85896 15.2893C0.707402 18.6979 1.04662 22.7987 1.04662 26.345C1.04662 30.0054 2.76265 32.17 5.67567 34.1819C7.6079 35.5164 10.058 36.5949 12.1873 37.6169C14.3924 38.6754 16.8312 39.2173 19.1631 39.7925C20.5748 40.1407 22.2441 39.907 23.689 39.907C25.0757 39.907 26.8705 40.207 28.2149 39.7925C30.2579 39.1625 32.4081 37.8908 33.9528 36.421C36.1135 34.3654 37.8773 32.0565 39.3426 29.4747C40.7784 26.945 40.5031 23.9688 40.5031 21.1797C40.5031 19.0254 39.3289 17.2019 39.1234 15.073C38.924 13.0065 37.6959 11.2235 37.2022 9.22073C36.5967 6.76482 36.2198 2.80868 32.8439 2.80868" stroke="#161A29" stroke-width="2" stroke-linecap="round"/>
<path d="M12.4198 29.602C12.4198 26.9743 14.5478 23.2627 16.7781 21.7141C18.6591 20.4081 21.0897 19.1803 23.4444 20.2129C24.7102 20.768 25.6628 22.2135 25.8686 23.5334C26.0558 24.734 26.8227 25.8359 27.0291 26.9557C27.2599 28.2086 27.5061 32.0204 27.5061 30.747" stroke="#161A29" stroke-width="2" stroke-linecap="round"/>
<path d="M21.7026 8.76279C19.5468 8.76279 19.1495 10.8432 19.1495 12.4777C19.1495 14.1837 22.2504 15.1748 23.7915 15.1748C25.6161 15.1748 24.952 11.3028 24.952 10.1368C24.952 8.7253 22.0018 8.76279 21.0063 8.76279" stroke="#161A29" stroke-width="2" stroke-linecap="round"/>
</svg>
