<svg width="51" height="48" viewBox="0 0 51 48" fill="none" xmlns="http://www.w3.org/2000/svg">
<path d="M39.6402 3.10308C38.3452 3.10308 36.9832 2.80865 35.7008 2.6297C32.9342 2.24363 30.2139 2.26194 27.4527 1.9788C23.4603 1.56941 19.6 0.535272 15.5729 1.23914C12.2174 1.82564 10.2732 6.06252 8.61744 8.42861C6.4786 11.485 4.16722 14.0735 2.93917 17.6152C1.56487 21.5786 1.9697 26.3469 1.9697 30.4704C1.9697 34.7266 4.01765 37.2436 7.4941 39.583C9.80005 41.1347 12.724 42.3887 15.2652 43.5771C17.8968 44.8079 20.8073 45.4379 23.5902 46.1068C25.275 46.5117 27.2672 46.2399 28.9915 46.2399C30.6464 46.2399 32.7884 46.5887 34.3928 46.1068C36.831 45.3743 39.397 43.8955 41.2406 42.1866C43.8191 39.7963 45.9241 37.1116 47.6729 34.1095C49.3863 31.1681 49.0578 27.7075 49.0578 24.4644C49.0578 21.9594 47.6565 19.8391 47.4113 17.3637C47.1732 14.9608 45.7077 12.8876 45.1184 10.5588C44.3959 7.70317 43.9461 3.10308 39.9172 3.10308" stroke="#161A29" stroke-width="2" stroke-linecap="round"/>
<path d="M15.5427 34.2575C15.5427 31.2021 18.0823 26.8864 20.744 25.0858C22.9888 23.5672 25.8895 22.1395 28.6997 23.3402C30.2103 23.9856 31.3471 25.6664 31.5927 27.2012C31.8161 28.5972 32.7314 29.8785 32.9776 31.1806C33.2532 32.6374 33.547 37.0697 33.547 35.5889" stroke="#161A29" stroke-width="2" stroke-linecap="round"/>
<path d="M26.6209 10.0264C24.048 10.0264 23.574 12.4454 23.574 14.346C23.574 16.3296 27.2746 17.4821 29.1138 17.4821C31.2913 17.4821 30.4987 12.9798 30.4987 11.624C30.4987 9.98277 26.9779 10.0264 25.7899 10.0264" stroke="#161A29" stroke-width="2" stroke-linecap="round"/>
</svg>
