<svg width="54" height="47" viewBox="0 0 54 47" fill="none" xmlns="http://www.w3.org/2000/svg">
<path d="M18.2602 3.15839C15.4235 3.15839 12.6795 4.90928 10.4506 6.56504C7.98927 8.39344 4.98217 10.3381 3.50873 13.1212C2.60809 14.8224 2.08562 16.5015 1.83755 18.424C1.56427 20.5419 1.273 22.9648 1.19479 25.0766C1.07624 28.2773 0.375714 32.6595 2.641 35.2484C4.15865 36.9828 5.53733 40.0869 7.70277 41.0493C10.1307 42.1284 12.2827 43.827 14.8535 44.7452C17.6719 45.7518 20.4569 45.6772 23.4023 45.6772C27.2636 45.6772 30.4709 44.4742 34.1686 43.6525C35.6405 43.3254 37.6372 41.7604 38.7804 40.7601C40.2448 39.4787 41.9181 38.3837 43.4244 37.1284C46.9472 34.1928 49.917 30.4113 51.6517 26.1533C52.6444 23.7167 52.6224 20.7593 52.0856 18.3437C51.4917 15.6712 51.0579 13.3714 49.4985 11.0322C47.7585 8.4223 44.9306 4.2544 41.9139 3.09411C38.5272 1.79155 34.381 1.65134 30.7137 1.40686C28.0328 1.22813 25.0209 0.762416 22.3096 1.14975C21.296 1.29455 20.4422 2.14846 19.4332 2.27459C18.6791 2.36885 17.7409 2.75069 17.3924 3.44763" stroke="#161A29" stroke-width="1.5" stroke-linecap="round"/>
<path d="M12 20.0189C12 17.8674 13.1392 15.9066 14.1107 14.0284C14.4777 13.3188 15.4809 11.0264 16.1903 10.583C16.5825 10.3379 16.6326 9.46175 16.7645 9.00001C16.7648 8.99895 19.9952 9.12416 20.2409 9.12416C22.4001 9.12416 24.4878 9.68287 26.6505 9.68287C28.3104 9.68287 30.2326 9.41831 31.8496 9.82254C32.9097 10.0876 34.0438 9.9737 35.1242 10.1795C35.9912 10.3446 36.815 10.5209 37.7004 10.5209" stroke="#161A29" stroke-width="2" stroke-linecap="round"/>
<path d="M12.5586 20.5776C17.3634 20.5776 22.0435 20.5275 26.7901 21.1208C28.0796 21.282 30.6169 21.6712 31.6166 22.471C31.7835 22.6045 36.8452 14.7949 37.1416 13.6093C37.2967 12.9891 39.0783 10.5209 37.7003 10.5209" stroke="#161A29" stroke-width="2" stroke-linecap="round"/>
<path d="M12 20.2983C12 21.276 12 22.2537 12 23.2315C12 24.783 12.5146 26.2158 12.5587 27.7166C12.6008 29.1487 12.7529 31.2807 13.3347 32.5898C13.6001 33.1869 13.5652 34.4359 13.6606 35.1039C13.7712 35.8783 13.909 36.549 13.9555 37.3388C13.9937 37.9886 20.7495 37.6181 21.498 37.6181C24.2888 37.6181 26.9863 37.6947 29.7234 38.1923C30.364 38.3088 31.5547 39.0387 31.5547 38.1147C31.5547 36.0212 32.1134 34.0004 32.1134 31.8914C32.1134 30.244 31.834 28.7646 31.834 27.1424C31.834 26.4923 31.7156 23.3119 31.2753 23.0918" stroke="#161A29" stroke-width="2" stroke-linecap="round"/>
<path d="M31.834 38.1768C31.9541 37.036 32.8843 36.2884 33.6498 35.523C34.1128 35.06 34.394 34.245 34.9069 33.9245C35.6438 33.4638 36.0018 32.1262 36.583 31.4724C37.311 30.6534 38.5384 28.253 38.5384 27.22C38.5384 23.7022 38.5384 20.1844 38.5384 16.6667C38.5384 15.6263 38.952 12.6831 37.9797 12.197" stroke="#161A29" stroke-width="2" stroke-linecap="round"/>
<path d="M35.3198 24.4929C35.3198 24.6094 35.2837 24.7985 35.3312 24.9055C35.3708 24.9946 35.5115 25.1552 35.5891 25.0087C35.7785 24.6509 35.3198 24.4128 35.3198 24.8024" stroke="#161A29" stroke-width="2" stroke-linecap="round"/>
<path d="M19.4848 11.444C19.3773 11.565 19.4116 11.9133 19.4361 12.0601C19.4786 12.315 19.8363 12.0932 19.886 11.9712C19.9202 11.8873 20.1152 11.5203 19.9404 11.4985C19.7139 11.4701 19.3301 11.5795 19.3301 11.8566" stroke="#161A29" stroke-width="2" stroke-linecap="round"/>
<path d="M23.251 14.5902C23.251 14.7844 23.2691 14.8311 23.3541 14.9799C23.423 15.1004 23.604 15.1655 23.7152 15.0544C23.8391 14.9304 23.9165 14.6888 23.867 14.5157C23.8245 14.3668 23.49 14.5436 23.4573 14.6418" stroke="#161A29" stroke-width="2" stroke-linecap="round"/>
<path d="M28.3566 16.7564C28.3355 16.9467 28.282 16.9536 28.4082 17.1289C28.5014 17.2583 28.6127 17.3238 28.7692 17.3238C28.9436 17.3238 28.924 17.2056 28.924 17.0659C28.924 16.9395 28.8123 16.9585 28.7177 16.9112" stroke="#161A29" stroke-width="2" stroke-linecap="round"/>
<path d="M15.745 23.4032C15.2837 23.4032 15.2476 23.5513 15.2476 23.9629C15.2476 24.1657 15.174 24.5637 15.441 24.64C15.9155 24.7756 16.3867 23.652 15.8694 23.652" stroke="#161A29" stroke-width="2" stroke-linecap="round"/>
<path d="M25.8184 24.3982C25.8184 24.687 26.6629 25.7104 26.6889 25.2688C26.7334 24.512 26.3637 24.3886 25.9427 25.02" stroke="#161A29" stroke-width="2" stroke-linecap="round"/>
<path d="M17.2375 33.6013C17.2375 33.7434 17.1623 34.087 17.3619 34.0988C17.5009 34.107 17.907 34.1639 17.9837 34.0297C18.3393 33.4075 17.6106 33.1287 17.6106 33.6013" stroke="#161A29" stroke-width="2" stroke-linecap="round"/>
<path d="M27.0627 33.3526C26.8224 33.3826 27.1578 34.3077 27.5878 33.8777C28.0251 33.4404 27.703 33.2282 27.1871 33.2282" stroke="#161A29" stroke-width="2" stroke-linecap="round"/>
</svg>
