<svg width="29" height="35" viewBox="0 0 29 35" fill="none" xmlns="http://www.w3.org/2000/svg">
<path d="M4.66979 11.533C4.66979 16.8301 4.9724 22.0508 5.71436 27.2446C5.8416 28.1352 6.11667 29.6971 6.67308 30.3926C6.9218 30.7035 6.99192 31.2241 7.30269 31.5659C7.75013 32.0581 8.33821 32.226 8.79085 32.6535C9.53309 33.3545 11.1227 33.4262 12.1249 33.4262C14.443 33.4262 16.7611 33.4262 19.0792 33.4262C19.9423 33.4262 21.2033 33.6512 22.0412 33.4118C22.3638 33.3197 22.2402 31.0686 22.3274 30.7074C22.7362 29.014 22.8906 27.2901 23.3291 25.599C23.7282 24.0594 23.6928 21.8194 23.7297 20.233C23.7733 18.3569 24.4356 16.552 24.5024 14.681C24.5321 13.8488 24.5024 13.0098 24.5024 12.1769C24.5024 10.8969 23.8418 11.1595 22.8282 11.0035M22.8282 11.0035C17.3832 10.1659 11.7922 10.2452 6.27243 10.2452C4.06256 10.2452 2.52893 10.6599 1.12109 8.90009C1.5 6.12409 4.48863 6.40819 5 6.12409C6.27243 6 6.91271 6.12409 7.76059 6.12409C8.95143 6.12409 10.3309 5.83675 11.0003 5C12.027 3.71666 10.801 2.47736 12.5113 1.98872C14.223 1.49964 16.6264 0.311253 17.8057 2.37507C18.2931 3.22802 18.3521 5.5 19.5003 5.5C21.39 5.5 22.6486 6 24.5003 6C26.2581 6 28.1182 6.77738 28.0003 8.90009C27.8866 10.9461 24.1195 11.2022 22.8282 11.0035Z" stroke="#161A29" stroke-width="2" stroke-linecap="round"/>
<path d="M11.1089 15.1389V25.6992" stroke="#161A29" stroke-width="2" stroke-linecap="round"/>
<path d="M16.5176 14.8814C16.5176 18.4518 16.7751 21.8818 16.7751 25.4416" stroke="#161A29" stroke-width="2" stroke-linecap="round"/>
</svg>
