<svg width="17" height="15" viewBox="0 0 17 15" fill="none" xmlns="http://www.w3.org/2000/svg">
<path d="M1.92627 4.76101C2.62077 2.93796 4.45741 1.77463 6.24616 1.26356C7.3086 0.960007 8.17825 0.983437 9.23685 1.02264C10.011 1.05131 11.4695 1.51901 12.0199 2.06939C12.8949 2.94443 13.514 4.00732 14.3044 4.9687C14.3561 5.0315 15.0198 5.70825 14.6616 5.6416C14.2563 5.5662 14.0041 5.34002 13.6647 5.15146C13.2602 4.92674 12.7188 4.68624 12.2608 4.68624C11.4473 4.68624 12.5589 4.76101 12.8423 4.76101C13.3315 4.76101 13.4087 5.06967 13.8143 5.28438C14.0898 5.43024 14.3041 5.5979 14.562 5.7496C15.0398 6.0307 14.9358 5.43182 14.9358 5.06008C14.9358 4.36493 15.4592 2.34621 15.4592 3.04136" stroke="#D0D0D0" stroke-width="1.3" stroke-linecap="round"/>
<path d="M14.674 10.8505C13.9064 12.644 12.0242 13.7321 10.2163 14.1704C9.14242 14.4308 8.27443 14.3723 7.21828 14.2903C6.44597 14.2304 5.00754 13.7041 4.47985 13.1319C3.64089 12.2222 3.06531 11.1352 2.31435 10.1426C2.26529 10.0778 1.6294 9.37478 1.98462 9.45584C2.38654 9.54757 2.62939 9.78376 2.96089 9.98588C3.35597 10.2268 3.88729 10.4889 4.3449 10.5075C5.1577 10.5403 4.05006 10.4207 3.76687 10.4093C3.27806 10.3895 3.21341 10.078 2.81685 9.84702C2.54745 9.69014 2.34015 9.51397 2.08859 9.35196C1.62247 9.05178 1.70221 9.65438 1.68719 10.0258C1.65909 10.7204 1.05455 12.7163 1.08265 12.0217" stroke="#D0D0D0" stroke-width="1.3" stroke-linecap="round"/>
</svg>
