<svg width="26" height="31" viewBox="0 0 26 31" fill="none" xmlns="http://www.w3.org/2000/svg">
<path d="M2.04855 5.7201C2.04855 12.3733 2.86567 20.0041 1.38008 26.5035C0.85292 28.8098 0.521827 31.8081 2.86895 28.4178C4.34318 26.2883 5.69029 24.1261 6.97094 21.885C7.72023 20.5737 8.89025 18.5954 10.2525 17.8742C12.5394 16.6635 12.3433 16.9 13.6557 19.3934C14.9987 21.9452 17.7009 24.1426 20.0973 25.6831C21.2613 26.4314 23.4188 29.1774 24.7462 29.1774C25.2599 29.1774 23.9258 14.1669 23.9258 12.8606C23.9258 10.5109 23.673 1.17638 20.6442 1.34464C17.6423 1.51142 14.8049 1.88783 11.6503 1.31426C9.72477 0.964171 8.16379 0.808499 6.18093 1.37503C5.59262 1.54312 1.91494 2.26827 1.62316 2.56005C0.809979 3.37323 1.9566 7.04146 2.59548 7.3609" stroke="#161A29" stroke-width="2" stroke-linecap="round"/>
</svg>
