<svg width="26" height="28" viewBox="0 0 26 28" fill="none" xmlns="http://www.w3.org/2000/svg">
<path d="M2.37275 10.5375C2.37275 13.2275 2.37275 15.9175 2.37275 18.6075C2.37275 19.5615 1.62305 25.164 2.37275 25.9137C2.72138 26.2623 9.26347 25.6591 9.9081 25.6591C13.405 25.6591 17.7803 24.9494 21.1602 25.8882C21.9884 26.1183 23.254 26.3374 24.1132 26.0919C24.563 25.9634 23.6736 25.0286 23.5532 24.7427C22.6689 22.6424 22.9931 19.8755 22.9931 17.6401C22.9931 16.0801 22.1629 14.3815 22.0767 12.8287C21.9993 11.436 22.4083 9.88938 21.6184 8.70459" stroke="#161A29" stroke-width="2.3" stroke-linecap="round"/>
<path d="M11.295 15C11.295 11.7257 11.1406 8.4636 11.1406 5.19431C11.1406 4.31619 11.1406 3.43807 11.1406 2.55995C11.1406 2.39936 11.2295 1.8196 10.9091 2.05584C10.3835 2.44339 9.81025 2.69402 9.28816 3.11284C8.5317 3.71966 6.47131 5.75238 7.12692 5.04796C7.97735 4.13421 9.0357 3.11986 10.0943 2.41359C11.0734 1.7604 11.041 2.04841 12.2213 2.38107C12.848 2.55772 14.697 3.15627 15 3.73078" stroke="#161A29" stroke-width="2.3" stroke-linecap="round"/>
</svg>
