<svg width="54" height="47" viewBox="0 0 54 47" fill="none" xmlns="http://www.w3.org/2000/svg">
<path d="M18.2602 3.47994C15.4235 3.47994 12.6795 5.23083 10.4506 6.88658C7.98927 8.71499 4.98217 10.6596 3.50873 13.4428C2.60809 15.144 2.08562 16.823 1.83755 18.7456C1.56427 20.8634 1.273 23.2863 1.19479 25.3982C1.07624 28.5988 0.375714 32.981 2.641 35.5699C4.15865 37.3044 5.53733 40.4084 7.70277 41.3709C10.1307 42.4499 12.2827 44.1486 14.8535 45.0667C17.6719 46.0733 20.4569 45.9988 23.4023 45.9988C27.2636 45.9988 30.4709 44.7958 34.1686 43.974C35.6405 43.6469 37.6372 42.0819 38.7804 41.0816C40.2448 39.8002 41.9181 38.7052 43.4244 37.45C46.9472 34.5143 49.917 30.7329 51.6517 26.4748C52.6444 24.0383 52.6224 21.0809 52.0856 18.6652C51.4917 15.9928 51.0579 13.693 49.4985 11.3538C47.7585 8.74384 44.9306 4.57595 41.9139 3.41566C38.5272 2.1131 34.381 1.97289 30.7137 1.72841C28.0328 1.54968 25.0209 1.08396 22.3096 1.4713C21.296 1.6161 20.4422 2.47001 19.4332 2.59614C18.6791 2.6904 17.7409 3.07224 17.3924 3.76918" stroke="#161A29" stroke-width="1.5" stroke-linecap="round"/>
<path d="M13.9715 16.8669C13.9715 20.3989 13.9715 23.931 13.9715 27.463C13.9715 28.3893 13.4747 33.6492 14.4294 33.922C14.875 34.0493 16.0395 33.5609 16.3262 33.2025C16.7496 32.6733 19.2758 33.0553 19.9236 33.0553C22.1366 33.0553 24.3496 33.0553 26.5625 33.0553C28.4975 33.0553 30.4325 33.0553 32.3675 33.0553C32.8114 33.0553 34.6521 33.2431 33.9209 32.2378C33.2106 31.2611 33.6628 29.8922 33.2505 28.8202C31.7961 25.0388 32.2203 20.599 32.2203 16.5726" stroke="#161A29" stroke-width="2" stroke-linecap="round"/>
<path d="M23.6844 25.1083C23.6844 21.9181 23.8518 18.6495 23.3738 15.5424C23.3123 15.1428 23.1353 11.6433 22.9323 11.5853C22.032 11.328 21.1476 14.4456 20.7411 14.9538C20.4227 15.3518 20.1022 15.9652 19.7109 16.2783C19.0265 16.8258 19.7397 15.6649 19.9235 15.4607C20.7042 14.5932 21.0129 13.3631 21.6895 12.5173C21.8603 12.3038 22.1535 11.3546 22.3763 11.2909C22.7241 11.1916 23.5641 12.1547 23.7498 12.4519C24.3652 13.4364 26.1196 13.4958 26.6278 14.5122" stroke="#161A29" stroke-width="2" stroke-linecap="round"/>
</svg>
