<svg width="44" height="39" viewBox="0 0 44 39" fill="none" xmlns="http://www.w3.org/2000/svg">
<path d="M1 37.5476C1 35.2774 1.75113 33.0444 2.54114 30.9547C3.89037 27.386 5.39722 23.9106 6.64836 20.3022C7.01821 19.2356 7.33585 17.9245 7.86781 16.9459C8.22961 16.2803 8.18547 15.5138 8.46631 14.8282C8.56899 14.5774 8.45587 14.122 8.81045 14.1009C9.43254 14.064 10.066 14.1009 10.6882 14.1009C19.5428 14.1009 28.3724 13.9571 37.2243 13.9571" stroke="#161A29" stroke-width="2" stroke-linecap="round"/>
<path d="M1 37.6915C14.7053 37.6915 28.4031 37.5476 42.1021 37.5476C42.5897 37.5476 43.0943 37.8128 42.9849 37.4038C42.7266 36.4381 42.4147 35.4298 42.0722 34.4949C41.0725 31.7659 40.2301 28.9628 39.5809 26.112C38.9761 23.4559 38.229 20.7916 38.0248 18.0646C37.9437 16.982 37.6659 15.3319 37.2243 14.3886" stroke="#161A29" stroke-width="2" stroke-linecap="round"/>
<path d="M13.6583 13.5556C13.6583 8.94366 15.6694 6.24307 18.555 3.55046C20.2236 1.99353 22.1848 1.15381 24.31 1.01913C25.6989 0.931125 26.4693 1.1145 27.4969 2.25275C28.5873 3.46059 29.7064 4.76253 30.1848 6.49032C30.5415 7.77868 30.8618 9.08471 31.2626 10.3514C31.559 11.2881 31.7416 12.5579 31.7416 13.5556" stroke="#161A29" stroke-width="2" stroke-linecap="round"/>
</svg>
