<svg width="27" height="39" viewBox="0 0 27 39" fill="none" xmlns="http://www.w3.org/2000/svg">
<path d="M3.54241 13.2511C2.3123 17.9446 1 24.7105 1 29.6004C8.06438 27.6038 14.7956 26.4662 22.082 29.0675C27.3213 30.938 25.5953 24.972 25.1386 22.6489C24.4407 19.0983 23.4284 15.386 21.0536 12.3065C19.7381 10.6006 18.3838 9.11349 16.9401 7.58338C16.0125 6.60024 14.2549 6.38477 13.8835 4.9675C13.549 3.69148 14.5168 2.90577 13.8835 1.6976C13.3553 0.689961 10.5968 0.848203 9.84551 1.6976C8.7731 2.90998 8.87758 5.31768 8.07641 6.67627C6.70851 8.99593 4.17437 10.8399 3.54241 13.2511Z" stroke="#161A29" stroke-width="2" stroke-linecap="round"/>
<path d="M14.3695 33.0881C10.2815 33.4733 7.91863 36.4505 13.084 37.4237C14.8767 37.7615 16.527 36.8053 16.4263 35.268C16.3215 33.6685 12.6377 33.5241 11.2843 33.5241" stroke="#161A29" stroke-width="2" stroke-linecap="round"/>
</svg>
