<svg width="105" height="32" viewBox="0 0 105 32" fill="none" xmlns="http://www.w3.org/2000/svg">
<path d="M22.8658 15.16C22.8658 16.6 22.6338 17.924 22.1698 19.132C21.7058 20.34 21.0578 21.38 20.2258 22.252C19.4018 23.116 18.4218 23.792 17.2858 24.28C16.1498 24.76 14.9098 25 13.5658 25H7.45783L9.59383 7.648H15.7138C16.8178 7.648 17.8098 7.836 18.6898 8.212C19.5778 8.588 20.3298 9.108 20.9458 9.772C21.5618 10.436 22.0338 11.228 22.3618 12.148C22.6978 13.068 22.8658 14.072 22.8658 15.16ZM19.6738 15.232C19.6738 14.456 19.5778 13.752 19.3858 13.12C19.1938 12.488 18.9138 11.952 18.5458 11.512C18.1858 11.064 17.7418 10.72 17.2138 10.48C16.6858 10.24 16.0818 10.12 15.4018 10.12H12.4258L10.8898 22.516H13.8778C14.7498 22.516 15.5418 22.348 16.2538 22.012C16.9658 21.676 17.5738 21.196 18.0778 20.572C18.5898 19.94 18.9818 19.176 19.2538 18.28C19.5338 17.376 19.6738 16.36 19.6738 15.232ZM31.042 14.632C30.93 14.624 30.822 14.62 30.718 14.62C30.622 14.612 30.526 14.608 30.43 14.608C29.766 14.608 29.15 14.76 28.582 15.064C28.014 15.368 27.522 15.78 27.106 16.3C26.698 16.812 26.374 17.412 26.134 18.1C25.902 18.78 25.786 19.5 25.786 20.26C25.786 21.124 25.922 21.756 26.194 22.156C26.466 22.556 26.838 22.756 27.31 22.756C27.638 22.756 27.958 22.644 28.27 22.42C28.59 22.188 28.89 21.876 29.17 21.484C29.458 21.084 29.718 20.616 29.95 20.08C30.19 19.544 30.398 18.968 30.574 18.352L31.042 14.632ZM30.226 22.432C29.682 23.272 29.066 23.94 28.378 24.436C27.698 24.932 26.954 25.18 26.146 25.18C25.682 25.18 25.246 25.088 24.838 24.904C24.438 24.72 24.086 24.448 23.782 24.088C23.486 23.72 23.25 23.264 23.074 22.72C22.906 22.168 22.822 21.524 22.822 20.788C22.822 20.052 22.914 19.336 23.098 18.64C23.282 17.944 23.542 17.292 23.878 16.684C24.222 16.068 24.634 15.504 25.114 14.992C25.594 14.48 26.13 14.04 26.722 13.672C27.322 13.304 27.966 13.02 28.654 12.82C29.35 12.612 30.082 12.508 30.85 12.508C31.402 12.508 31.954 12.548 32.506 12.628C33.066 12.708 33.61 12.852 34.138 13.06L32.662 25H31.09C30.714 25 30.458 24.908 30.322 24.724C30.194 24.532 30.13 24.296 30.13 24.016L30.226 22.432ZM46.3181 12.688L38.1821 28.408C38.0701 28.616 37.9381 28.768 37.7861 28.864C37.6341 28.968 37.4461 29.02 37.2221 29.02H35.0261L37.7621 24.052L34.6541 12.688H37.1381C37.3541 12.688 37.5141 12.744 37.6181 12.856C37.7301 12.96 37.8061 13.088 37.8461 13.24L39.3581 19.624C39.4381 20.032 39.4981 20.44 39.5381 20.848C39.6261 20.64 39.7141 20.436 39.8021 20.236C39.8981 20.028 39.9941 19.82 40.0901 19.612L43.1261 13.228C43.2061 13.068 43.3221 12.94 43.4741 12.844C43.6261 12.74 43.7821 12.688 43.9421 12.688H46.3181ZM59.1701 22.42L58.8701 25H49.4381L51.5741 7.648H54.6821L52.8581 22.42H59.1701ZM63.9966 22.9C64.4926 22.9 64.9406 22.76 65.3406 22.48C65.7406 22.192 66.0806 21.812 66.3606 21.34C66.6406 20.86 66.8566 20.304 67.0086 19.672C67.1606 19.04 67.2366 18.376 67.2366 17.68C67.2366 16.68 67.0686 15.948 66.7326 15.484C66.3966 15.012 65.8846 14.776 65.1966 14.776C64.7006 14.776 64.2486 14.916 63.8406 15.196C63.4406 15.476 63.1006 15.856 62.8206 16.336C62.5406 16.808 62.3246 17.36 62.1726 17.992C62.0206 18.624 61.9446 19.292 61.9446 19.996C61.9446 20.996 62.1126 21.732 62.4486 22.204C62.7846 22.668 63.3006 22.9 63.9966 22.9ZM63.7206 25.18C63.0406 25.18 62.4126 25.068 61.8366 24.844C61.2606 24.612 60.7606 24.276 60.3366 23.836C59.9126 23.396 59.5806 22.856 59.3406 22.216C59.1006 21.576 58.9806 20.844 58.9806 20.02C58.9806 18.956 59.1526 17.964 59.4966 17.044C59.8406 16.124 60.3046 15.328 60.8886 14.656C61.4806 13.984 62.1686 13.456 62.9526 13.072C63.7366 12.688 64.5726 12.496 65.4606 12.496C66.1406 12.496 66.7686 12.612 67.3446 12.844C67.9286 13.068 68.4286 13.4 68.8446 13.84C69.2686 14.28 69.6006 14.82 69.8406 15.46C70.0806 16.1 70.2006 16.832 70.2006 17.656C70.2006 18.712 70.0286 19.7 69.6846 20.62C69.3406 21.532 68.8726 22.328 68.2806 23.008C67.6966 23.68 67.0126 24.212 66.2286 24.604C65.4446 24.988 64.6086 25.18 63.7206 25.18ZM75.5991 22.9C76.0951 22.9 76.5431 22.76 76.9431 22.48C77.3431 22.192 77.6831 21.812 77.9631 21.34C78.2431 20.86 78.4591 20.304 78.6111 19.672C78.7631 19.04 78.8391 18.376 78.8391 17.68C78.8391 16.68 78.6711 15.948 78.3351 15.484C77.9991 15.012 77.4871 14.776 76.7991 14.776C76.3031 14.776 75.8511 14.916 75.4431 15.196C75.0431 15.476 74.7031 15.856 74.4231 16.336C74.1431 16.808 73.9271 17.36 73.7751 17.992C73.6231 18.624 73.5471 19.292 73.5471 19.996C73.5471 20.996 73.7151 21.732 74.0511 22.204C74.3871 22.668 74.9031 22.9 75.5991 22.9ZM75.3231 25.18C74.6431 25.18 74.0151 25.068 73.4391 24.844C72.8631 24.612 72.3631 24.276 71.9391 23.836C71.5151 23.396 71.1831 22.856 70.9431 22.216C70.7031 21.576 70.5831 20.844 70.5831 20.02C70.5831 18.956 70.7551 17.964 71.0991 17.044C71.4431 16.124 71.9071 15.328 72.4911 14.656C73.0831 13.984 73.7711 13.456 74.5551 13.072C75.3391 12.688 76.1751 12.496 77.0631 12.496C77.7431 12.496 78.3711 12.612 78.9471 12.844C79.5311 13.068 80.0311 13.4 80.4471 13.84C80.8711 14.28 81.2031 14.82 81.4431 15.46C81.6831 16.1 81.8031 16.832 81.8031 17.656C81.8031 18.712 81.6311 19.7 81.2871 20.62C80.9431 21.532 80.4751 22.328 79.8831 23.008C79.2991 23.68 78.6151 24.212 77.8311 24.604C77.0471 24.988 76.2111 25.18 75.3231 25.18ZM87.2256 7.168L85.9776 17.38H86.2776C86.4616 17.38 86.6096 17.352 86.7216 17.296C86.8416 17.24 86.9656 17.136 87.0936 16.984L90.3696 13.204C90.5056 13.036 90.6496 12.908 90.8016 12.82C90.9536 12.732 91.1456 12.688 91.3776 12.688H94.0176L89.9616 17.26C89.6736 17.612 89.3616 17.888 89.0256 18.088C89.1776 18.2 89.3056 18.336 89.4096 18.496C89.5216 18.656 89.6216 18.832 89.7096 19.024L92.7456 25H90.1776C89.9616 25 89.7816 24.964 89.6376 24.892C89.4936 24.812 89.3776 24.672 89.2896 24.472L86.9016 19.804C86.8136 19.62 86.7176 19.5 86.6136 19.444C86.5176 19.388 86.3576 19.36 86.1336 19.36H85.7256L85.0416 25H82.1136L84.3096 7.168H87.2256Z" fill="#161A29"/>
<path d="M4.63086 7.70659C4.63086 6.33869 5.47768 4.01563 6.80923 3.34985" stroke="#161A29" stroke-width="2" stroke-linecap="round"/>
<path d="M1 5.52817C1 4.36066 1.63223 1.65552 3.17837 1.65552" stroke="#161A29" stroke-width="2" stroke-linecap="round"/>
<path d="M100.479 11.5792C100.479 10.6554 100.56 9.73788 100.291 8.86296C99.9797 7.85198 99.2082 7.70654 98.0586 7.70654" stroke="#161A29" stroke-width="2" stroke-linecap="round"/>
<path d="M103.141 8.19058C103.141 6.59145 101.596 4.12586 99.9941 3.5918" stroke="#161A29" stroke-width="2" stroke-linecap="round"/>
</svg>
