<svg width="22" height="25" viewBox="0 0 22 25" fill="none" xmlns="http://www.w3.org/2000/svg">
<path d="M3.63995 8.35159C3.63995 12.1213 3.86508 15.8365 4.41704 19.5326C4.51169 20.1665 4.71632 21.278 5.13025 21.7729C5.31528 21.9942 5.36744 22.3647 5.59863 22.6079C5.93149 22.9582 6.36898 23.0776 6.70571 23.3818C7.25788 23.8807 8.44044 23.9317 9.18599 23.9317C10.9105 23.9317 12.635 23.9317 14.3594 23.9317C15.0016 23.9317 15.9396 24.0919 16.563 23.9216C16.8029 23.856 16.711 22.254 16.7759 21.9969C17.0799 20.7918 17.1948 19.5651 17.521 18.3616C17.8179 17.2659 17.7916 15.6719 17.8191 14.5429C17.8515 13.2078 18.3442 11.9233 18.3939 10.5919C18.416 9.99959 18.3939 9.40254 18.3939 8.80983C18.3939 7.89893 17.9025 8.08579 17.1484 7.97481M17.1484 7.97481C13.0978 7.37867 8.9385 7.43511 4.83219 7.43511C3.18822 7.43511 2.04732 7.73025 1 6.4779C1.28188 4.50238 3.50518 4.70455 3.88561 4.50238C4.83219 4.41407 5.30851 4.50238 5.93927 4.50238C6.82516 4.50238 7.85137 4.29789 8.34935 3.70242C9.11312 2.78914 8.20112 1.9072 9.4734 1.55946C10.7468 1.21141 12.5347 0.3657 13.412 1.8344C13.7746 2.4414 13.8185 4.05824 14.6727 4.05824C16.0785 4.05824 17.0148 4.41407 18.3923 4.41407C19.7 4.41407 21.0838 4.96728 20.996 6.4779C20.9115 7.9339 18.1091 8.11619 17.1484 7.97481Z" stroke="#D4D4D4" stroke-width="1.3" stroke-linecap="round"/>
<path d="M8.43066 10.918V18.4331" stroke="#D4D4D4" stroke-width="1.3" stroke-linecap="round"/>
<path d="M12.4536 10.7354C12.4536 13.2762 12.6452 15.7172 12.6452 18.2505" stroke="#D4D4D4" stroke-width="1.3" stroke-linecap="round"/>
</svg>
